<?xml version="1.0" encoding="utf-8"?>
<!-- Generator: Adobe Illustrator 26.1.0, SVG Export Plug-In . SVG Version: 6.00 Build 0)  -->
<svg version="1.1" id="_x2014_ÎÓÈ_x5F_1" xmlns="http://www.w3.org/2000/svg" xmlns:xlink="http://www.w3.org/1999/xlink"
	 x="0px" y="0px" viewBox="0 0 450 245.1" style="enable-background:new 0 0 450 245.1;" xml:space="preserve">
<style type="text/css">
	.st0{fill:url(#SVGID_1_);}
	.st1{fill:url(#SVGID_00000053521478706272502310000006543042752103527599_);}
	.st2{clip-path:url(#SVGID_00000150791448745753142760000016332147643243315863_);}
	.st3{fill:#0A1417;fill-opacity:0;}
	.st4{opacity:3.225806e-02;fill:url(#SVGID_00000178916941635700610400000002753391217266406585_);enable-background:new    ;}
	.st5{opacity:6.451613e-02;fill:url(#SVGID_00000023985544615408414800000013903049146152146856_);enable-background:new    ;}
	.st6{opacity:9.677419e-02;fill:url(#SVGID_00000035505321710562453690000013310792993970947201_);enable-background:new    ;}
	.st7{opacity:0.129;fill:url(#SVGID_00000090278448508751851250000012153193260245126276_);enable-background:new    ;}
	.st8{opacity:0.1613;fill:url(#SVGID_00000164516308027604370260000001329175400490472079_);enable-background:new    ;}
	.st9{opacity:0.1935;fill:url(#SVGID_00000181054978026488382380000013163758391446382759_);enable-background:new    ;}
	.st10{opacity:0.2258;fill:url(#SVGID_00000068657567017923755410000011112025224774388363_);enable-background:new    ;}
	.st11{opacity:0.2581;fill:url(#SVGID_00000021098632818124361950000008440126809320188854_);enable-background:new    ;}
	.st12{opacity:0.2903;fill:url(#SVGID_00000011006888151827254450000017762051021064388526_);enable-background:new    ;}
	.st13{opacity:0.3226;fill:url(#SVGID_00000168816388166279349220000000078309225542988707_);enable-background:new    ;}
	.st14{opacity:0.3548;fill:url(#SVGID_00000178910938199368534780000017494408678726316476_);enable-background:new    ;}
	.st15{opacity:0.3871;fill:url(#SVGID_00000101062258687884455810000014302008576178337453_);enable-background:new    ;}
	.st16{opacity:0.4194;fill:url(#SVGID_00000178927094318881663570000010672334725749477281_);enable-background:new    ;}
	.st17{opacity:0.4516;fill:url(#SVGID_00000085949703668519721630000001591509857072341694_);enable-background:new    ;}
	.st18{opacity:0.4839;fill:url(#SVGID_00000144315218926528082380000003917459016666569372_);enable-background:new    ;}
	.st19{opacity:0.5161;fill:url(#SVGID_00000181789089778585476170000003088180651914295189_);enable-background:new    ;}
	.st20{opacity:0.5484;fill:url(#SVGID_00000000187234025431149640000011398508518062106792_);enable-background:new    ;}
	.st21{opacity:0.5806;fill:url(#SVGID_00000062891575951676840990000014979356107167827589_);enable-background:new    ;}
	.st22{opacity:0.6129;fill:url(#SVGID_00000005247026791417033260000009970088405569247922_);enable-background:new    ;}
	.st23{opacity:0.6452;fill:url(#SVGID_00000134237011865315570850000015448066429774484894_);enable-background:new    ;}
	.st24{opacity:0.6774;fill:url(#SVGID_00000078021553516192101550000007183009756910398102_);enable-background:new    ;}
	.st25{opacity:0.7097;fill:url(#SVGID_00000073714976942755671790000015444272096406897563_);enable-background:new    ;}
	.st26{opacity:0.7419;fill:url(#SVGID_00000084502831694922922640000005155176684268077204_);enable-background:new    ;}
	.st27{opacity:0.7742;fill:url(#SVGID_00000103946217665384003900000005364299276930073504_);enable-background:new    ;}
	.st28{opacity:0.8065;fill:url(#SVGID_00000183964053026183519510000013938050377868568215_);enable-background:new    ;}
	.st29{opacity:0.8387;fill:url(#SVGID_00000119796145513713935590000016302984976789404594_);enable-background:new    ;}
	.st30{opacity:0.871;fill:url(#SVGID_00000152979138615060851410000008971394268622472894_);enable-background:new    ;}
	.st31{opacity:0.9032;fill:url(#SVGID_00000176016596737677889000000013656856970688012191_);enable-background:new    ;}
	.st32{opacity:0.9355;fill:url(#SVGID_00000139252219557146152610000012051965544135443879_);enable-background:new    ;}
	.st33{opacity:0.9677;fill:url(#SVGID_00000033339206170914932680000000238445761555209146_);enable-background:new    ;}
	.st34{fill:url(#SVGID_00000070807516983534650220000015692729927809147017_);}
	.st35{clip-path:url(#SVGID_00000057127300539844286070000008009419361813191850_);fill:#517478;}
	.st36{fill:url(#SVGID_00000026875089161645363860000003685570540907436675_);}
	.st37{fill:url(#SVGID_00000086661283424158555990000015566049015669300875_);}
	.st38{fill:url(#SVGID_00000137102562460643949380000003448929624151030403_);}
	.st39{fill:url(#SVGID_00000137831950828380010250000002767801986922071692_);}
</style>
<g id="_x33__00000075157669494639686960000004295931303256765349_">
	<g>
		
			<linearGradient id="SVGID_1_" gradientUnits="userSpaceOnUse" x1="224.9931" y1="24.1859" x2="224.9931" y2="91.5842" gradientTransform="matrix(1 0 0 -1 0 248)">
			<stop  offset="0" style="stop-color:#517478"/>
			<stop  offset="1" style="stop-color:#90B7C2"/>
		</linearGradient>
		<path class="st0" d="M390.1,198.1L368,186.3c-3.1-1.7-6.5-2.9-9.9-3.7l17-8.3c3.2-1.6,3.3-6.2,0.1-7.9l-20-10.7
			c-5.3-2.8-11.2-4.3-17.1-4.3H198.9c-27.2,0-51.6-4.6-79.9-10.2c-16.2-3.2-33.1-0.1-46.7,9.2c-19,13-16.5,26.5-11,35.7
			c4,6.6,10.1,11.5,16.9,15c28.3,14.5,59.7,22,91.6,22h177.3c6.1,0,12.1-1.4,17.6-4.1l25.2-12.3C393.5,205,393.6,200,390.1,198.1z"
			/>
		
			<linearGradient id="SVGID_00000000928822625349387490000006863453316970311313_" gradientUnits="userSpaceOnUse" x1="238.0286" y1="66.6132" x2="238.0286" y2="109.1452" gradientTransform="matrix(1 0 0 -1 0 248)">
			<stop  offset="0" style="stop-color:#517478"/>
			<stop  offset="1" style="stop-color:#90B7C2"/>
		</linearGradient>
		<path style="fill:url(#SVGID_00000000928822625349387490000006863453316970311313_);" d="M375.2,166.4l-14.1-7.5L195.7,159
			c-20,0-39.7-2.7-59.6-6.9c-9-1.9-16.9-3.4-26.1-1.9c-9,1.4-16.8,7.8-6.8,12.4c22.3,10.2,58.8,18.9,92.3,18.9H349c3,0,6,0.4,9,1.1
			l17-8.3C378.3,172.7,378.4,168.1,375.2,166.4z"/>
		<g>
			<g>
				<defs>
					<path id="SVGID_00000065072046446803902510000015070279652418470537_" d="M390.1,198.1L368,186.3c-3.1-1.7-6.5-2.9-9.9-3.7
						l17-8.3c3.2-1.6,3.3-6.2,0.1-7.9l-20-10.7c-5.3-2.8-11.2-4.3-17.1-4.3H198.9c-27.2,0-51.6-4.6-79.9-10.2
						c-16.2-3.2-33.1-0.1-46.7,9.2c-19,13-16.5,26.5-11,35.7c4,6.6,10.1,11.5,16.9,15c28.3,14.5,59.7,22,91.6,22h177.3
						c6.1,0,12.1-1.4,17.6-4.1l25.2-12.3C393.5,205,393.6,200,390.1,198.1z"/>
				</defs>
				<clipPath id="SVGID_00000010288594407624360010000011527537056604962455_">
					<use xlink:href="#SVGID_00000065072046446803902510000015070279652418470537_"  style="overflow:visible;"/>
				</clipPath>
				<g style="clip-path:url(#SVGID_00000010288594407624360010000011527537056604962455_);">
					<path class="st3" d="M167.4,231.7c-36.8,0-107.6-12.6-118.8-43.9c-3.3-9.3,2.5-26.8,9-33.1c9.7-9.4,18.5-13.2,26.7-16.7
						c5.6-2.4,13.9-4.5,20.1-4.5c9,0.1,12.3,0.5,15.1,5.4c2.2,3.8-3.9,7.9-7.6,8.8c-2.1,0.5-4.2,1-6.2,1.6c-3,0.8-6.3,1.6-8.2,4.1
						c-6,7.7,10.1,11.6,14.5,13.3c8.7,3.3,17.6,6.1,26.7,8.4c18.3,4.6,37.2,6.9,56,6.9h154.8c6.2,0,12.3,1.5,17.8,4.4
						c6,3.2,24,9.4,23.9,16.2s-18.4,12.9-24.5,15.8l-2.6,1.3c-5.2,2.5-10.9,3.8-16.6,3.8L167.4,231.7z"/>
					
						<radialGradient id="SVGID_00000052098518127752727670000003608851458582063266_" cx="220.2707" cy="43.3944" r="218.8274" gradientTransform="matrix(1 0 0 -1 0 248)" gradientUnits="userSpaceOnUse">
						<stop  offset="0" style="stop-color:#0E191D"/>
						<stop  offset="1" style="stop-color:#0B1518"/>
					</radialGradient>
					
						<path style="opacity:3.225806e-02;fill:url(#SVGID_00000052098518127752727670000003608851458582063266_);enable-background:new    ;" d="
						M164.8,230.1c-35.7-0.1-104.3-12.4-115.3-42.7c-3.3-9.1,2.2-26.3,8.7-32.6c9.4-9.1,18-12.8,26-16.4c5.6-2.5,13.7-4.6,19.8-4.6
						c8.8,0,12.2,0.4,14.9,5.1c2.2,3.8-3.9,7.7-7.5,8.7c-2.1,0.5-4.1,1.1-6.2,1.7c-3,0.8-6.1,1.9-7.9,4.3c-5.6,7.6,10,11.4,14.3,13
						c8.8,3.3,17.7,6.1,26.7,8.4c18.4,4.6,37.3,6.6,56.2,7c0.1,0,150,0,150.1,0c6,0,16.9,1.5,22.2,4.3c5.9,3.1,23.5,9.2,23.5,15.8
						s-17.7,12.7-23.7,15.6L364,219c-5.4,2.5-14.8,3.7-21.5,3.6C341.5,222.8,166,230.6,164.8,230.1z"/>
					
						<radialGradient id="SVGID_00000155863236698521938890000007950431715722677663_" cx="220.1703" cy="44.4179" r="217.64" gradientTransform="matrix(1 0 0 -1 0 248)" gradientUnits="userSpaceOnUse">
						<stop  offset="0" style="stop-color:#131F22"/>
						<stop  offset="0.949" style="stop-color:#0C171A"/>
						<stop  offset="1" style="stop-color:#0C1619"/>
					</radialGradient>
					
						<path style="opacity:6.451613e-02;fill:url(#SVGID_00000155863236698521938890000007950431715722677663_);enable-background:new    ;" d="
						M162.2,228.6c-34.7-0.1-101-12.1-111.9-41.5c-3.3-9,2-25.8,8.4-32c9.1-8.9,17.5-12.5,25.3-16c5.5-2.5,13.4-4.6,19.5-4.7
						c8.6-0.1,12,0.2,14.7,4.9c2.1,3.7-3.9,7.6-7.4,8.5c-2.1,0.6-4.1,1.2-6.1,1.8c-2.9,0.9-6,2.1-7.7,4.6
						c-5.2,7.5,9.9,11.2,14.2,12.8c8.9,3.4,17.7,6.1,26.8,8.4c18.4,4.6,37.4,6.7,56.4,7.1c0.2,0,145.3,0,145.5,0
						c5.8,0,21.5,1.5,26.6,4.2c5.9,3.1,23,8.9,23.1,15.4s-17,12.5-22.9,15.4l-2.6,1.3c-5.7,2.4-18.6,3.5-26.5,3.4
						C335.2,222.1,164.5,229.4,162.2,228.6z"/>
					
						<radialGradient id="SVGID_00000072272350212062513900000008289090820291554203_" cx="220.0697" cy="45.4182" r="216.4579" gradientTransform="matrix(1 0 0 -1 0 248)" gradientUnits="userSpaceOnUse">
						<stop  offset="0" style="stop-color:#172428"/>
						<stop  offset="0.6898" style="stop-color:#101C20"/>
						<stop  offset="1" style="stop-color:#0C171A"/>
					</radialGradient>
					
						<path style="opacity:9.677419e-02;fill:url(#SVGID_00000072272350212062513900000008289090820291554203_);enable-background:new    ;" d="
						M159.5,227c-33.6-0.2-97.7-11.9-108.5-40.3c-3.3-8.8,1.8-25.3,8-31.5c8.8-8.7,17-12.1,24.6-15.6c5.4-2.5,13.2-4.7,19.2-4.8
						c8.4-0.2,11.8,0.1,14.5,4.6c2.1,3.6-3.8,7.4-7.3,8.4c-2.1,0.6-4.1,1.3-6.1,1.9c-2.9,1-5.8,2.4-7.4,4.8
						c-4.8,7.4,9.8,10.9,14,12.5c9,3.4,17.7,6.1,26.8,8.4c18.4,4.7,37.5,6.8,56.5,7.2c0.3,0,140.5,0,140.8,0c5.6,0,26.1,1.5,31,4
						c5.8,3,22.5,8.6,22.7,14.9c0.2,6.3-16.3,12.3-22.1,15.2l-2.6,1.3c-5.9,2.4-22.5,3.3-31.5,3.2C329,221.3,163.1,228.2,159.5,227z
						"/>
					
						<radialGradient id="SVGID_00000021799110847143523990000014071511653448357275_" cx="219.969" cy="46.3929" r="215.2813" gradientTransform="matrix(1 0 0 -1 0 248)" gradientUnits="userSpaceOnUse">
						<stop  offset="0" style="stop-color:#1B292D"/>
						<stop  offset="0.5754" style="stop-color:#142125"/>
						<stop  offset="1" style="stop-color:#0D181B"/>
					</radialGradient>
					
						<path style="opacity:0.129;fill:url(#SVGID_00000021799110847143523990000014071511653448357275_);enable-background:new    ;" d="
						M156.9,225.4c-32.6-0.2-94.4-11.7-105-39.1c-3.4-8.7,1.6-24.8,7.7-30.9c8.5-8.5,16.5-11.8,23.9-15.2c5.4-2.5,12.9-4.7,18.9-4.9
						c8.1-0.3,11.7-0.1,14.2,4.4c2.1,3.5-3.8,7.2-7.2,8.2c-2.1,0.6-4.1,1.4-6.1,2.1c-2.9,1-5.7,2.6-7.2,5
						c-4.5,7.2,9.7,10.7,13.9,12.2c9.1,3.4,17.7,6.1,26.8,8.5c18.5,4.7,37.6,6.9,56.7,7.3c0.4,0,135.7,0,136.1,0
						c5.4,0,30.7,1.4,35.5,3.9c5.7,2.9,22,8.3,22.3,14.5c0.4,6.2-15.5,12.1-21.3,14.9l-2.6,1.3c-6.2,2.4-26.4,3.1-36.5,3.1
						C322.8,220.6,161.6,227,156.9,225.4z"/>
					
						<radialGradient id="SVGID_00000152240670307763876380000000614682492327497882_" cx="219.868" cy="47.34" r="214.1102" gradientTransform="matrix(1 0 0 -1 0 248)" gradientUnits="userSpaceOnUse">
						<stop  offset="0" style="stop-color:#202E33"/>
						<stop  offset="0.4825" style="stop-color:#19262B"/>
						<stop  offset="1" style="stop-color:#0E191C"/>
					</radialGradient>
					
						<path style="opacity:0.1613;fill:url(#SVGID_00000152240670307763876380000000614682492327497882_);enable-background:new    ;" d="
						M154.3,223.8c-31.5-0.3-91.1-11.4-101.6-37.9c-3.4-8.5,1.4-24.3,7.4-30.4c8.2-8.3,16-11.5,23.1-14.8c5.3-2.5,12.7-4.7,18.6-5
						c7.9-0.4,11.5-0.2,14,4.1c2,3.5-3.8,7.1-7.1,8.1c-2.1,0.6-4,1.4-6,2.2c-2.8,1.1-5.6,2.9-7,5.3c-4.1,7.1,9.6,10.4,13.7,12
						c9.2,3.4,17.7,6.1,26.9,8.5c18.5,4.8,37.7,7,56.8,7.5c0.5,0,130.9,0,131.5,0c5.2,0,35.3,1.4,39.9,3.7
						c5.6,2.8,21.4,8.1,21.9,14.1s-14.8,11.9-20.6,14.7l-2.6,1.3c-6.5,2.3-30.3,2.9-41.5,2.9C316.6,219.8,160.2,225.9,154.3,223.8z"
						/>
					
						<radialGradient id="SVGID_00000049940487233322230780000002368786243071733140_" cx="219.7669" cy="48.2577" r="212.9448" gradientTransform="matrix(1 0 0 -1 0 248)" gradientUnits="userSpaceOnUse">
						<stop  offset="0" style="stop-color:#243438"/>
						<stop  offset="0.4187" style="stop-color:#1E2C30"/>
						<stop  offset="1" style="stop-color:#0F1A1C"/>
					</radialGradient>
					
						<path style="opacity:0.1935;fill:url(#SVGID_00000049940487233322230780000002368786243071733140_);enable-background:new    ;" d="
						M151.7,222.2c-30.5-0.3-87.8-11.2-98.2-36.8c-3.4-8.4,1.1-23.8,7.1-29.8c8-8,15.5-11.1,22.4-14.5c5.2-2.5,12.5-4.8,18.2-5.1
						c7.7-0.5,11.3-0.4,13.8,3.8c2,3.4-3.8,6.9-6.9,7.9c-2,0.7-4,1.5-6,2.3c-2.8,1.2-5.4,3.1-6.7,5.5c-3.7,7,9.6,10.2,13.6,11.7
						c9.3,3.4,17.7,6.1,26.9,8.5c18.6,4.8,37.8,7.1,57,7.6c0.6,0,126.1,0,126.8,0c5,0,39.8,1.4,44.3,3.6c5.6,2.8,20.9,7.8,21.5,13.6
						c0.6,5.9-14.1,11.7-19.8,14.5l-2.6,1.3c-6.7,2.3-34.2,2.7-46.5,2.7C310.4,219.1,158.7,224.7,151.7,222.2z"/>
					
						<radialGradient id="SVGID_00000178893843847898530030000005756600275129757854_" cx="219.6656" cy="49.1438" r="211.7852" gradientTransform="matrix(1 0 0 -1 0 248)" gradientUnits="userSpaceOnUse">
						<stop  offset="0" style="stop-color:#28393E"/>
						<stop  offset="0.3718" style="stop-color:#223136"/>
						<stop  offset="0.9602" style="stop-color:#101D1F"/>
						<stop  offset="1" style="stop-color:#0F1B1D"/>
					</radialGradient>
					
						<path style="opacity:0.2258;fill:url(#SVGID_00000178893843847898530030000005756600275129757854_);enable-background:new    ;" d="
						M149,220.6c-29.5-0.4-84.5-11-94.7-35.6c-3.4-8.2,0.9-23.3,6.8-29.3c7.7-7.8,15.1-10.8,21.7-14.1c5.2-2.6,12.2-4.8,17.9-5.2
						c7.5-0.5,11.1-0.5,13.6,3.6c2,3.3-3.8,6.7-6.8,7.7c-2,0.7-4,1.6-5.9,2.5c-2.8,1.2-5.3,3.3-6.5,5.8c-3.4,6.9,9.5,10,13.4,11.5
						c9.3,3.5,17.7,6.1,26.9,8.5c18.6,4.9,37.9,7.2,57.1,7.7c0.7,0,121.4,0,122.1,0c4.8,0,44.4,1.3,48.7,3.4
						c5.5,2.7,20.4,7.5,21.1,13.2s-13.4,11.6-19,14.3l-2.6,1.3c-7,2.3-38.1,2.6-51.5,2.5C304.2,218.4,157.3,223.5,149,220.6z"/>
					
						<radialGradient id="SVGID_00000026137285643844436490000002102652712428136834_" cx="219.5642" cy="49.9969" r="210.6318" gradientTransform="matrix(1 0 0 -1 0 248)" gradientUnits="userSpaceOnUse">
						<stop  offset="0" style="stop-color:#2D3E43"/>
						<stop  offset="0.3424" style="stop-color:#26363B"/>
						<stop  offset="0.8842" style="stop-color:#152124"/>
						<stop  offset="1" style="stop-color:#101C1E"/>
					</radialGradient>
					
						<path style="opacity:0.2581;fill:url(#SVGID_00000026137285643844436490000002102652712428136834_);enable-background:new    ;" d="
						M146.4,219c-28.4-0.4-81.2-10.7-91.3-34.4c-3.4-8.1,0.7-22.8,6.4-28.7c7.4-7.6,14.6-10.4,21-13.7c5.1-2.6,12-4.8,17.6-5.3
						c7.3-0.6,11-0.7,13.4,3.3c1.9,3.2-3.8,6.6-6.7,7.6c-2,0.7-4,1.7-5.9,2.6c-2.7,1.3-5.1,3.6-6.2,6c-3,6.7,9.4,9.7,13.3,11.2
						c9.4,3.5,17.7,6.1,27,8.6c18.7,4.9,38,7.3,57.3,7.8c0.9,0,116.6,0.1,117.4,0.1c4.6,0,49,1.3,53.1,3.3
						c5.4,2.6,19.9,7.3,20.7,12.8c0.8,5.5-12.7,11.4-18.2,14.1l-2.6,1.3c-7.3,2.2-42,2.4-56.5,2.3
						C297.9,217.6,155.8,222.4,146.4,219z"/>
					
						<radialGradient id="SVGID_00000031895589503014088940000015129090432493444760_" cx="219.4627" cy="50.8148" r="209.4847" gradientTransform="matrix(1 0 0 -1 0 248)" gradientUnits="userSpaceOnUse">
						<stop  offset="0" style="stop-color:#314349"/>
						<stop  offset="0.3125" style="stop-color:#2B3B41"/>
						<stop  offset="0.8068" style="stop-color:#19272A"/>
						<stop  offset="1" style="stop-color:#111D1F"/>
					</radialGradient>
					
						<path style="opacity:0.2903;fill:url(#SVGID_00000031895589503014088940000015129090432493444760_);enable-background:new    ;" d="
						M143.8,217.4c-27.4-0.5-77.9-10.5-87.9-33.2c-3.5-7.9,0.5-22.3,6.1-28.2c7.1-7.4,14.1-10.1,20.3-13.3c5-2.6,11.7-4.9,17.3-5.4
						c7.1-0.7,10.8-0.8,13.1,3.1c1.9,3.2-3.8,6.4-6.6,7.4c-2,0.7-4,1.8-5.8,2.7c-2.7,1.4-5,3.8-6,6.2c-2.7,6.5,9.3,9.5,13.1,10.9
						c9.5,3.5,17.7,6.1,27,8.6c18.7,5,38.1,7.4,57.5,7.9c1,0,111.8,0.1,112.8,0.1c4.4,0,53.6,1.3,57.6,3.2c5.3,2.5,19.4,7,20.3,12.4
						c1,5.4-12,11.2-17.4,13.8l-2.6,1.3c-7.5,2.2-45.8,2.2-61.5,2.1C291.7,216.9,154.4,221.2,143.8,217.4z"/>
					
						<radialGradient id="SVGID_00000023264583922712060720000016309608159850838204_" cx="219.3611" cy="51.5959" r="208.3443" gradientTransform="matrix(1 0 0 -1 0 248)" gradientUnits="userSpaceOnUse">
						<stop  offset="0" style="stop-color:#35494E"/>
						<stop  offset="0.2927" style="stop-color:#2F4146"/>
						<stop  offset="0.7555" style="stop-color:#1D2C2F"/>
						<stop  offset="1" style="stop-color:#121E20"/>
					</radialGradient>
					
						<path style="opacity:0.3226;fill:url(#SVGID_00000023264583922712060720000016309608159850838204_);enable-background:new    ;" d="
						M141.2,215.8c-26.3-0.5-74.7-10.3-84.4-32c-3.5-7.8,0.2-21.8,5.8-27.6c6.8-7.2,13.6-9.8,19.5-12.9c4.9-2.6,11.5-4.9,17-5.5
						c6.9-0.8,10.6-1,12.9,2.8c1.9,3.1-3.7,6.3-6.5,7.3c-2,0.7-3.9,1.8-5.8,2.8c-2.7,1.4-5.3,3.9-5.8,6.5c-3.4,5.8,9.2,9.3,13,10.7
						c9.6,3.6,17.7,6.1,27,8.6c18.8,5,38.2,7.5,57.6,8c1.1,0,107,0.1,108.1,0.1c4.2,0,58.2,1.2,62,3c5.3,2.5,18.9,6.7,19.9,11.9
						c1.1,5.2-11.3,11-16.6,13.6l-2.6,1.3c-7.8,2.2-49.7,2-66.5,1.9C285.5,216.1,152.9,220,141.2,215.8z"/>
					
						<radialGradient id="SVGID_00000103947049383914299280000009021433169028859823_" cx="219.2595" cy="52.3382" r="207.2109" gradientTransform="matrix(1 0 0 -1 0 248)" gradientUnits="userSpaceOnUse">
						<stop  offset="0" style="stop-color:#3A4E54"/>
						<stop  offset="0.2716" style="stop-color:#34464C"/>
						<stop  offset="0.7013" style="stop-color:#223135"/>
						<stop  offset="1" style="stop-color:#131F21"/>
					</radialGradient>
					
						<path style="opacity:0.3548;fill:url(#SVGID_00000103947049383914299280000009021433169028859823_);enable-background:new    ;" d="
						M138.5,214.2c-25.3-0.6-71.4-10-81-30.8c-3.5-7.6,0-21.3,5.5-27.1c6.5-6.9,13.1-9.4,18.8-12.5c4.9-2.6,11.2-5,16.7-5.6
						c6.6-0.8,10.5-1.1,12.7,2.5c1.8,3-3.7,6.1-6.4,7.1c-2,0.8-3.9,1.9-5.7,3c-2.6,1.5-5.2,4.1-5.5,6.7c-3.2,5.7,9.1,9,12.8,10.4
						c9.7,3.6,17.7,6.1,27.1,8.6c18.8,5.1,38.3,7.6,57.8,8.1c1.2,0,102.2,0.1,103.4,0.1c4,0,62.8,1.2,66.4,2.9
						c5.2,2.4,18.4,6.4,19.6,11.5s-10.6,10.8-15.9,13.4l-2.6,1.3c-8,2.1-53.6,1.8-71.5,1.7C279.3,215.4,151.5,218.8,138.5,214.2z"/>
					
						<radialGradient id="SVGID_00000103962593939490940680000016877231932970159026_" cx="219.1579" cy="53.0404" r="206.0849" gradientTransform="matrix(1 0 0 -1 0 248)" gradientUnits="userSpaceOnUse">
						<stop  offset="0" style="stop-color:#3E5359"/>
						<stop  offset="0.2573" style="stop-color:#374B51"/>
						<stop  offset="0.6641" style="stop-color:#26363A"/>
						<stop  offset="1" style="stop-color:#132022"/>
					</radialGradient>
					
						<path style="opacity:0.3871;fill:url(#SVGID_00000103962593939490940680000016877231932970159026_);enable-background:new    ;" d="
						M135.9,212.6c-24.2-0.6-68.2-9.8-77.6-29.6c-3.5-7.5-0.2-20.8,5.2-26.5c6.2-6.7,12.6-9.1,18.1-12.2c4.8-2.7,11-5,16.4-5.7
						c6.4-0.9,10.3-1.2,12.5,2.3c1.8,2.9-3.7,6-6.2,7c-2,0.8-3.9,2-5.7,3.1c-2.6,1.6-5.1,4.3-5.3,6.9c-2.9,5.5,9,8.8,12.7,10.1
						c9.8,3.6,17.7,6.1,27.1,8.6c18.9,5.1,38.4,7.7,57.9,8.2c1.3,0,97.5,0.1,98.7,0.1c3.8,0,67.4,1.2,70.8,2.7
						c5.1,2.3,17.8,6.2,19.2,11.1c1.3,4.9-9.9,10.6-15.1,13.2l-2.6,1.3c-8.3,2.1-57.5,1.7-76.5,1.5
						C273.1,214.6,150,217.7,135.9,212.6z"/>
					
						<radialGradient id="SVGID_00000067955470622739706280000016949495021859238298_" cx="219.0565" cy="53.7009" r="204.9665" gradientTransform="matrix(1 0 0 -1 0 248)" gradientUnits="userSpaceOnUse">
						<stop  offset="0" style="stop-color:#42585F"/>
						<stop  offset="0.2416" style="stop-color:#3C5057"/>
						<stop  offset="0.6237" style="stop-color:#2A3B40"/>
						<stop  offset="1" style="stop-color:#142123"/>
					</radialGradient>
					
						<path style="opacity:0.4194;fill:url(#SVGID_00000067955470622739706280000016949495021859238298_);enable-background:new    ;" d="
						M133.3,211c-23.2-0.7-64.9-9.5-74.1-28.4c-3.6-7.3-0.4-20.3,4.8-26c5.9-6.5,12.1-8.8,17.4-11.8c4.7-2.7,10.7-5,16-5.8
						c6.2-1,10.1-1.4,12.3,2c1.8,2.9-3.7,5.8-6.1,6.8c-2,0.8-3.9,2.1-5.6,3.2c-2.5,1.6-5,4.5-5,7.2c-2.7,5.3,8.9,8.6,12.5,9.9
						c9.9,3.6,17.7,6.1,27.1,8.7c18.9,5.2,38.5,7.8,58.1,8.3c1.4,0,92.7,0.1,94.1,0.1c3.6,0,72,1.1,75.3,2.6
						c5,2.2,17.3,5.9,18.8,10.6c1.4,4.8-9.2,10.5-14.3,12.9l-2.6,1.3c-8.6,2.1-61.4,1.5-81.5,1.3C266.9,213.9,148.6,216.5,133.3,211
						z"/>
					
						<radialGradient id="SVGID_00000021090501101860760280000011792658776183840906_" cx="218.9554" cy="54.3188" r="203.8563" gradientTransform="matrix(1 0 0 -1 0 248)" gradientUnits="userSpaceOnUse">
						<stop  offset="0" style="stop-color:#475E64"/>
						<stop  offset="0.2307" style="stop-color:#40565C"/>
						<stop  offset="0.5964" style="stop-color:#2F4145"/>
						<stop  offset="1" style="stop-color:#152224"/>
					</radialGradient>
					
						<path style="opacity:0.4516;fill:url(#SVGID_00000021090501101860760280000011792658776183840906_);enable-background:new    ;" d="
						M130.6,209.4c-22.1-0.7-61.7-9.3-70.7-27.2c-3.6-7.2-0.7-19.7,4.5-25.4c5.7-6.2,11.6-8.5,16.7-11.4c4.7-2.7,10.5-5,15.7-5.9
						c6-1,9.9-1.5,12,1.8c1.8,2.8-3.7,5.7-6,6.7c-2,0.9-3.9,2.2-5.6,3.4c-2.5,1.7-4.9,4.8-4.8,7.4c-2.4,5.1,8.9,8.3,12.4,9.6
						c10,3.6,17.7,6.1,27.2,8.7c19,5.2,38.6,7.8,58.3,8.4c1.5,0,87.9,0.1,89.4,0.1c3.4,0,76.6,1.1,79.7,2.4
						c5,2.2,16.8,5.6,18.4,10.2c1.6,4.6-8.5,10.3-13.5,12.7l-2.6,1.3c-8.8,2.1-65.3,1.3-86.4,1.1
						C260.7,213.1,147.1,215.3,130.6,209.4z"/>
					
						<radialGradient id="SVGID_00000129192102019373193100000001129105570613710520_" cx="218.8547" cy="54.739" r="202.7635" gradientTransform="matrix(1 0 0 -1 0 248)" gradientUnits="userSpaceOnUse">
						<stop  offset="0" style="stop-color:#4B636A"/>
						<stop  offset="0.2184" style="stop-color:#455B62"/>
						<stop  offset="0.5649" style="stop-color:#33464B"/>
						<stop  offset="0.9941" style="stop-color:#162426"/>
						<stop  offset="1" style="stop-color:#162325"/>
					</radialGradient>
					
						<path style="opacity:0.4839;fill:url(#SVGID_00000129192102019373193100000001129105570613710520_);enable-background:new    ;" d="
						M128,207.9c-21.1-0.8-58.5-9-67.3-26c-3.6-7-0.9-19.2,4.2-24.9c5.4-6,11.1-8.1,15.9-11c4.6-2.7,10.3-5.1,15.4-6
						c5.8-1.1,9.8-1.7,11.8,1.5c1.7,2.7-3.7,5.5-5.9,6.5c-2,0.9-3.8,2.3-5.5,3.5c-2.5,1.8-4.8,5-4.6,7.7c-2.2,4.9,8.8,8.1,12.2,9.4
						c10.1,3.7,17.7,6.1,27.2,8.7c19,5.2,38.7,7.9,58.4,8.5c1.6,0,83.1,0.1,84.7,0.1c3.2,0,81.2,1,84.1,2.3c4.9,2.1,16.3,5.3,18,9.8
						c1.7,4.4-7.8,10.1-12.7,12.5l-2.6,1.3c-9.1,2-69.2,1.1-91.4,1C254.4,212.4,145.7,214.1,128,207.9z"/>
					
						<radialGradient id="SVGID_00000072969859499330116000000002864638412684490403_" cx="218.7546" cy="55.1242" r="201.6792" gradientTransform="matrix(1 0 0 -1 0 248)" gradientUnits="userSpaceOnUse">
						<stop  offset="0" style="stop-color:#4F686F"/>
						<stop  offset="0.2077" style="stop-color:#496067"/>
						<stop  offset="0.5371" style="stop-color:#374B50"/>
						<stop  offset="0.945" style="stop-color:#1A282B"/>
						<stop  offset="1" style="stop-color:#162325"/>
					</radialGradient>
					
						<path style="opacity:0.5161;fill:url(#SVGID_00000072969859499330116000000002864638412684490403_);enable-background:new    ;" d="
						M125.4,206.3c-20.1-0.8-55.3-8.8-63.8-24.8c-3.6-6.9-1.1-18.7,3.9-24.3c5.1-5.8,10.6-7.8,15.2-10.6c4.5-2.7,10-5.1,15.1-6.1
						c5.5-1.1,9.6-1.8,11.6,1.2c1.7,2.6-3.6,5.4-5.8,6.3c-2,0.9-3.8,2.3-5.5,3.6c-2.4,1.8-4.7,5.2-4.3,7.9
						c-1.9,4.7,8.7,7.8,12.1,9.1c10.2,3.7,17.7,6.1,27.3,8.7c19.1,5.3,38.8,8,58.6,8.7c1.7,0.1,78.3,0.1,80,0.1c3,0,85.8,1,88.5,2.2
						c4.8,2,15.8,5.1,17.6,9.4c1.8,4.3-7.1,9.9-11.9,12.3l-2.6,1.3c-9.4,2-73.1,1-96.4,0.8C248.2,211.7,144.2,213,125.4,206.3z"/>
					
						<radialGradient id="SVGID_00000088822820258903768630000014779272234313173413_" cx="218.6554" cy="55.504" r="200.6023" gradientTransform="matrix(1 0 0 -1 0 248)" gradientUnits="userSpaceOnUse">
						<stop  offset="0" style="stop-color:#536D75"/>
						<stop  offset="0.1981" style="stop-color:#4D656D"/>
						<stop  offset="0.5125" style="stop-color:#3B5056"/>
						<stop  offset="0.9016" style="stop-color:#1F2E31"/>
						<stop  offset="1" style="stop-color:#172426"/>
					</radialGradient>
					
						<path style="opacity:0.5484;fill:url(#SVGID_00000088822820258903768630000014779272234313173413_);enable-background:new    ;" d="
						M122.8,204.7c-19-0.9-52.1-8.5-60.4-23.6c-3.7-6.7-1.3-18.2,3.6-23.8c4.8-5.5,10.1-7.5,14.5-10.3s9.8-5.1,14.8-6.2
						c5.3-1.2,9.4-2,11.4,1c1.7,2.6-3.6,5.2-5.7,6.2c-2,0.9-3.8,2.4-5.4,3.7c-2.4,1.9-4.6,5.4-4.1,8.1c-1.7,4.6,8.6,7.6,12,8.8
						c10.2,3.7,17.7,6.1,27.3,8.7c19.1,5.3,38.9,8.1,58.7,8.8c1.8,0.1,73.6,0.1,75.4,0.1c2.8,0,90.3,1,92.9,2
						c4.8,1.9,15.3,4.8,17.2,8.9c1.9,4.1-6.4,9.7-11.1,12.1l-2.6,1.3c-9.6,2-76.9,0.8-101.4,0.6C242,210.9,142.8,211.8,122.8,204.7z
						"/>
					
						<radialGradient id="SVGID_00000006709784210150646700000017211082972369305527_" cx="218.5574" cy="55.879" r="199.5337" gradientTransform="matrix(1 0 0 -1 0 248)" gradientUnits="userSpaceOnUse">
						<stop  offset="0" style="stop-color:#58737A"/>
						<stop  offset="0.1912" style="stop-color:#526B72"/>
						<stop  offset="0.4945" style="stop-color:#40565B"/>
						<stop  offset="0.87" style="stop-color:#233336"/>
						<stop  offset="1" style="stop-color:#182527"/>
					</radialGradient>
					
						<path style="opacity:0.5806;fill:url(#SVGID_00000006709784210150646700000017211082972369305527_);enable-background:new    ;" d="
						M120.1,203.1c-18-0.9-48.9-8.2-57-22.5c-3.7-6.6-1.5-17.7,3.2-23.2c4.5-5.3,9.6-7.2,13.8-9.9c4.4-2.8,9.5-5.1,14.5-6.3
						c5.1-1.2,9.3-2.1,11.1,0.7c1.6,2.5-3.6,5.1-5.5,6c-2,1-3.8,2.5-5.4,3.9c-2.4,2-4.5,5.7-3.8,8.4c-1.4,4.4,8.5,7.4,11.8,8.6
						c10.3,3.7,17.8,6.1,27.3,8.8c19.2,5.4,39,8.2,58.9,8.9c1.9,0.1,68.8,0.1,70.7,0.1c2.6,0,94.9,0.9,97.4,1.9
						c4.7,1.9,14.8,4.5,16.8,8.5s-5.7,9.5-10.4,11.8l-2.6,1.3c-9.9,1.9-80.8,0.6-106.4,0.4C235.8,210.2,141.3,210.6,120.1,203.1z"/>
					
						<radialGradient id="SVGID_00000181778010043817627740000012058208535066749586_" cx="218.4611" cy="56.25" r="198.4741" gradientTransform="matrix(1 0 0 -1 0 248)" gradientUnits="userSpaceOnUse">
						<stop  offset="0" style="stop-color:#5C7880"/>
						<stop  offset="0.1833" style="stop-color:#567078"/>
						<stop  offset="0.4741" style="stop-color:#445B61"/>
						<stop  offset="0.8341" style="stop-color:#28383C"/>
						<stop  offset="1" style="stop-color:#192628"/>
					</radialGradient>
					
						<path style="opacity:0.6129;fill:url(#SVGID_00000181778010043817627740000012058208535066749586_);enable-background:new    ;" d="
						M117.5,201.5c-16.9-1-45.7-8-53.5-21.3c-3.8-6.4-1.8-17.2,2.9-22.7c4.3-5,9.1-6.9,13.1-9.5c4.3-2.8,9.3-5.2,14.2-6.4
						c4.9-1.3,9.1-2.3,10.9,0.5c1.6,2.4-3.6,4.9-5.4,5.9c-2,1-3.7,2.6-5.4,4c-2.3,2-4.5,5.9-3.6,8.6c-1.2,4.2,8.4,7.1,11.7,8.3
						c10.4,3.7,17.8,6.1,27.4,8.8c19.2,5.4,39.1,8.3,59,9c2,0.1,64,0.1,66,0.1c2.4,0,99.5,0.9,101.8,1.7c4.6,1.8,14.3,4.3,16.4,8.1
						c2.2,3.8-5,9.4-9.6,11.6l-2.6,1.3c-10.2,1.9-84.7,0.4-111.4,0.2C229.6,209.4,139.9,209.5,117.5,201.5z"/>
					
						<radialGradient id="SVGID_00000045576809949259373600000015585381596153216152_" cx="218.3669" cy="56.6175" r="197.4245" gradientTransform="matrix(1 0 0 -1 0 248)" gradientUnits="userSpaceOnUse">
						<stop  offset="0" style="stop-color:#607D85"/>
						<stop  offset="0.1776" style="stop-color:#5A757D"/>
						<stop  offset="0.4592" style="stop-color:#486066"/>
						<stop  offset="0.8077" style="stop-color:#2B3D41"/>
						<stop  offset="1" style="stop-color:#192729"/>
					</radialGradient>
					
						<path style="opacity:0.6452;fill:url(#SVGID_00000045576809949259373600000015585381596153216152_);enable-background:new    ;" d="
						M114.9,199.9c-15.9-1-42.6-7.7-50.1-20.1c-3.8-6.3-2-16.7,2.6-22.2c4-4.8,8.6-6.6,12.3-9.1c4.2-2.9,9-5.2,13.8-6.5
						c4.7-1.3,8.9-2.4,10.7,0.2c1.6,2.3-3.6,4.8-5.3,5.7c-2,1-3.7,2.7-5.3,4.1c-2.3,2.1-4.4,6.1-3.3,8.8c-0.9,4,8.3,6.9,11.5,8
						c10.5,3.8,17.8,6.1,27.4,8.8c19.3,5.5,39.2,8.4,59.2,9.1c2.1,0.1,59.2,0.1,61.4,0.1s104.1,0.8,106.2,1.6c4.6,1.7,13.7,4,16,7.6
						c2.3,3.7-4.2,9.2-8.8,11.4l-2.6,1.3c-10.4,1.9-88.6,0.2-116.4,0C223.4,208.7,138.4,208.3,114.9,199.9z"/>
					
						<radialGradient id="SVGID_00000115477236384098218920000009410595026849359267_" cx="218.2756" cy="56.9822" r="196.3862" gradientTransform="matrix(1 0 0 -1 0 248)" gradientUnits="userSpaceOnUse">
						<stop  offset="0" style="stop-color:#65828B"/>
						<stop  offset="0.1709" style="stop-color:#5F7A83"/>
						<stop  offset="0.442" style="stop-color:#4D656C"/>
						<stop  offset="0.7774" style="stop-color:#304347"/>
						<stop  offset="1" style="stop-color:#1A282A"/>
					</radialGradient>
					
						<path style="opacity:0.6774;fill:url(#SVGID_00000115477236384098218920000009410595026849359267_);enable-background:new    ;" d="
						M112.3,198.3c-14.8-1.1-39.4-7.4-46.7-18.9c-3.9-6.1-2.2-16.1,2.3-21.6c3.7-4.6,8.1-6.3,11.6-8.7c4.1-2.9,8.8-5.2,13.5-6.6
						c4.5-1.4,8.8-2.6,10.5,0c1.5,2.3-3.5,4.7-5.2,5.6c-2,1.1-3.7,2.7-5.3,4.2c-2.3,2.2-4.3,6.3-3.1,9.1c-0.7,3.8,8.2,6.7,11.4,7.8
						c10.6,3.8,17.8,6.1,27.4,8.8c19.3,5.5,39.3,8.5,59.4,9.2c2.2,0.1,54.4,0.1,56.7,0.1c2,0,108.7,0.7,110.6,1.4
						c4.5,1.7,13.2,3.7,15.6,7.2s-3.5,9-8,11.2l-2.6,1.3c-10.7,1.8-92.5,0.1-121.4-0.2C217.1,207.9,137,207.1,112.3,198.3z"/>
					
						<radialGradient id="SVGID_00000147183200670676760760000005341128790558492095_" cx="218.1879" cy="57.3444" r="195.3605" gradientTransform="matrix(1 0 0 -1 0 248)" gradientUnits="userSpaceOnUse">
						<stop  offset="0" style="stop-color:#698890"/>
						<stop  offset="0.166" style="stop-color:#638088"/>
						<stop  offset="0.4293" style="stop-color:#516B71"/>
						<stop  offset="0.7551" style="stop-color:#34484C"/>
						<stop  offset="1" style="stop-color:#1B292B"/>
					</radialGradient>
					
						<path style="opacity:0.7097;fill:url(#SVGID_00000147183200670676760760000005341128790558492095_);enable-background:new    ;" d="
						M109.6,196.7c-13.8-1.1-36.3-7.1-43.2-17.7c-3.9-6-2.4-15.6,2-21.1c3.5-4.3,7.5-5.9,10.9-8.4c4.1-2.9,8.5-5.2,13.2-6.7
						c4.3-1.4,8.6-2.7,10.3-0.3c1.5,2.2-3.5,4.5-5.1,5.4c-2,1.1-3.7,2.8-5.2,4.4c-2.2,2.2-4.2,6.6-2.9,9.3
						c-0.4,3.7,8.2,6.4,11.2,7.5c10.7,3.8,17.8,6.1,27.5,8.9c19.3,5.6,39.4,8.6,59.5,9.3c2.4,0.1,49.7,0.1,52,0.1
						c1.8,0,113.3,0.7,115,1.3c4.5,1.6,12.7,3.4,15.2,6.8c2.5,3.3-2.8,8.8-7.2,11l-2.6,1.3c-10.9,1.8-96.4-0.1-126.4-0.4
						C210.9,207.2,135.5,205.9,109.6,196.7z"/>
					
						<radialGradient id="SVGID_00000129923368845289901110000016442511605118605969_" cx="218.1049" cy="57.7048" r="194.349" gradientTransform="matrix(1 0 0 -1 0 248)" gradientUnits="userSpaceOnUse">
						<stop  offset="0" style="stop-color:#6D8D96"/>
						<stop  offset="0.1603" style="stop-color:#67858E"/>
						<stop  offset="0.4146" style="stop-color:#557077"/>
						<stop  offset="0.7292" style="stop-color:#394D52"/>
						<stop  offset="1" style="stop-color:#1C2A2C"/>
					</radialGradient>
					
						<path style="opacity:0.7419;fill:url(#SVGID_00000129923368845289901110000016442511605118605969_);enable-background:new    ;" d="
						M107,195.1c-12.7-1.2-33.2-6.8-39.8-16.5c-4-5.8-2.6-15.1,1.6-20.5c3.2-4.1,7-5.6,10.2-8c4-3,8.3-5.2,12.9-6.8
						c4-1.4,8.4-2.9,10-0.6c1.5,2.1-3.5,4.4-5,5.2c-2,1.2-3.7,2.9-5.2,4.5c-2.2,2.3-4.1,6.8-2.6,9.6c-0.2,3.5,8.1,6.2,11.1,7.2
						c10.8,3.8,17.8,6.1,27.5,8.9c19.4,5.6,39.5,8.7,59.7,9.4c2.5,0.1,44.9,0.2,47.3,0.2c1.6,0,117.9,0.6,119.5,1.1
						c4.4,1.5,12.2,3.2,14.8,6.4c2.7,3.2-2.1,8.6-6.4,10.7l-2.6,1.3c-11.2,1.8-100.3-0.3-131.4-0.6C204.7,206.4,134,204.8,107,195.1
						z"/>
					
						<radialGradient id="SVGID_00000002354897184878095810000018329862929366509953_" cx="218.028" cy="58.0636" r="193.3538" gradientTransform="matrix(1 0 0 -1 0 248)" gradientUnits="userSpaceOnUse">
						<stop  offset="0" style="stop-color:#72929B"/>
						<stop  offset="0.1561" style="stop-color:#6C8A93"/>
						<stop  offset="0.4036" style="stop-color:#5A757C"/>
						<stop  offset="0.7099" style="stop-color:#3D5257"/>
						<stop  offset="1" style="stop-color:#1D2B2D"/>
					</radialGradient>
					
						<path style="opacity:0.7742;fill:url(#SVGID_00000002354897184878095810000018329862929366509953_);enable-background:new    ;" d="
						M104.4,193.5c-11.7-1.2-30.1-6.5-36.4-15.3c-4-5.7-2.8-14.6,1.3-20c2.9-3.8,6.5-5.3,9.5-7.6c3.9-3,8.1-5.2,12.6-6.9
						c3.8-1.5,8.3-3,9.8-0.8c1.5,2-3.5,4.2-4.9,5.1c-2,1.2-3.6,3-5.1,4.6c-2.1,2.4-4,7-2.4,9.8c0.1,3.3,8,5.9,10.9,7
						c10.9,3.8,17.8,6.1,27.5,8.9c19.4,5.7,39.6,8.8,59.8,9.5c2.6,0.1,40.1,0.2,42.7,0.2c1.4,0,122.6,0.6,123.9,1
						c4.3,1.5,11.7,2.9,14.4,5.9c2.8,3-1.4,8.4-5.7,10.5l-2.6,1.3c-11.5,1.7-104.2-0.5-136.4-0.8
						C198.5,205.7,132.6,203.6,104.4,193.5z"/>
					
						<radialGradient id="SVGID_00000087394678100978902840000008254910745369637540_" cx="217.9586" cy="58.4212" r="192.3772" gradientTransform="matrix(1 0 0 -1 0 248)" gradientUnits="userSpaceOnUse">
						<stop  offset="0" style="stop-color:#7697A1"/>
						<stop  offset="0.1511" style="stop-color:#708F99"/>
						<stop  offset="0.391" style="stop-color:#5E7A82"/>
						<stop  offset="0.6894" style="stop-color:#41575C"/>
						<stop  offset="1" style="stop-color:#1D2C2E"/>
					</radialGradient>
					
						<path style="opacity:0.8065;fill:url(#SVGID_00000087394678100978902840000008254910745369637540_);enable-background:new    ;" d="
						M101.7,191.9c-10.7-1.3-27-6.2-32.9-14.1c-4.1-5.5-3-14.1,1-19.4c2.7-3.6,6-5,8.7-7.2c3.8-3.1,7.8-5.2,12.3-7
						c3.6-1.5,8.1-3.2,9.6-1.1c1.4,2-3.5,4.1-4.7,4.9c-1.9,1.2-3.6,3.1-5.1,4.8c-2.1,2.4-3.9,7.2-2.1,10c0.3,3.1,7.9,5.7,10.8,6.7
						c11,3.9,17.8,6.1,27.6,8.9c19.5,5.7,39.7,8.9,60,9.6c2.7,0.1,35.3,0.2,38,0.2c1.2,0,127.2,0.3,128.3,0.9
						c4.4,0.6,11.2,2.6,14,5.5c2.9,2.9-0.7,8.3-4.9,10.3l-2.6,1.3c-11.7,1.7-108-0.7-141.4-1C192.3,205,131.1,202.4,101.7,191.9z"/>
					
						<radialGradient id="SVGID_00000044898289008532488720000004886882363762456500_" cx="217.8986" cy="58.778" r="191.4217" gradientTransform="matrix(1 0 0 -1 0 248)" gradientUnits="userSpaceOnUse">
						<stop  offset="0" style="stop-color:#7A9DA6"/>
						<stop  offset="0.1466" style="stop-color:#74959E"/>
						<stop  offset="0.3792" style="stop-color:#628087"/>
						<stop  offset="0.6687" style="stop-color:#455D61"/>
						<stop  offset="1" style="stop-color:#1E2D2E"/>
					</radialGradient>
					
						<path style="opacity:0.8387;fill:url(#SVGID_00000044898289008532488720000004886882363762456500_);enable-background:new    ;" d="
						M99.1,190.3c-9.6-1.3-23.9-5.9-29.5-12.9c-4.2-5.3-3.2-13.5,0.7-18.9c2.4-3.3,5.5-4.7,8-6.8c3.7-3.1,7.6-5.2,12-7.1
						c3.4-1.5,7.9-3.3,9.4-1.3c1.4,1.9-3.4,4-4.6,4.8c-1.9,1.3-3.6,3.1-5,4.9c-2.1,2.5-3.8,7.4-1.9,10.3c0.6,2.9,7.8,5.5,10.6,6.5
						c11.1,3.9,17.8,6.1,27.6,8.9c19.5,5.8,39.8,9,60.1,9.7c2.8,0.1,30.5,0.2,33.3,0.2c1,0,131.8,0.2,132.7,0.7
						c4.4,0.5,10.7,2.4,13.7,5.1c3,2.7,0,8.1-4.1,10.1l-2.6,1.3c-12,1.7-111.9-0.8-146.4-1.1C186.1,204.2,129.7,201.2,99.1,190.3z"
						/>
					
						<radialGradient id="SVGID_00000152247006964739786770000007664856081416929456_" cx="217.8502" cy="59.1342" r="190.4905" gradientTransform="matrix(1 0 0 -1 0 248)" gradientUnits="userSpaceOnUse">
						<stop  offset="0" style="stop-color:#7FA2AC"/>
						<stop  offset="0.1423" style="stop-color:#799AA4"/>
						<stop  offset="0.3682" style="stop-color:#67858D"/>
						<stop  offset="0.6493" style="stop-color:#4A6267"/>
						<stop  offset="0.9719" style="stop-color:#233234"/>
						<stop  offset="1" style="stop-color:#1F2E2F"/>
					</radialGradient>
					
						<path style="opacity:0.871;fill:url(#SVGID_00000152247006964739786770000007664856081416929456_);enable-background:new    ;" d="
						M96.5,188.8c-8.6-1.4-20.9-5.6-26.1-11.7c-4.3-5.1-3.4-13,0.4-18.3c2.2-3,5-4.4,7.3-6.5c3.6-3.2,7.3-5.2,11.6-7.3
						c3.2-1.5,7.7-3.5,9.2-1.6c1.4,1.8-3.4,3.8-4.5,4.6c-1.9,1.3-3.6,3.2-5,5c-2,2.6-3.2,7.4-1.7,10.5c1.3,2.6,7.7,5.2,10.5,6.2
						c11.2,3.9,17.8,6.1,27.6,9c19.6,5.8,39.9,9.1,60.3,9.9c2.9,0.1,25.8,0.2,28.6,0.2c0.8,0,136.4,0.2,137.1,0.6
						c4.3,0.4,10.1,2.1,13.3,4.6c3.1,2.6,0.7,7.9-3.3,9.8l-2.6,1.3c-12.3,1.6-115.8-1-151.3-1.3C179.8,203.5,128.2,200.1,96.5,188.8
						z"/>
					
						<radialGradient id="SVGID_00000057867933182023562870000006359678197902817190_" cx="217.8158" cy="59.4901" r="189.5868" gradientTransform="matrix(1 0 0 -1 0 248)" gradientUnits="userSpaceOnUse">
						<stop  offset="0" style="stop-color:#83A7B1"/>
						<stop  offset="0.1391" style="stop-color:#7D9FA9"/>
						<stop  offset="0.3599" style="stop-color:#6B8A92"/>
						<stop  offset="0.6347" style="stop-color:#4E676C"/>
						<stop  offset="0.9501" style="stop-color:#273739"/>
						<stop  offset="1" style="stop-color:#202F30"/>
					</radialGradient>
					
						<path style="opacity:0.9032;fill:url(#SVGID_00000057867933182023562870000006359678197902817190_);enable-background:new    ;" d="
						M93.9,187.2c-7.5-1.4-17.8-5.2-22.6-10.5c-4.4-4.9-3.6-12.4,0-17.8c1.9-2.8,4.5-4.1,6.6-6.1c3.5-3.2,7.1-5.2,11.3-7.4
						c3-1.6,7.6-3.6,8.9-1.9c1.3,1.7-3.4,3.7-4.4,4.5c-1.9,1.4-3.5,3.3-4.9,5.1c-2,2.6-3.2,7.6-1.4,10.7c1.4,2.4,7.6,5,10.3,5.9
						c11.2,3.9,17.8,6.1,27.7,9c19.6,5.8,40,9.2,60.5,10c3,0.1,21,0.2,24,0.2c0.6,0,141,0.1,141.6,0.4c4.3,0.3,9.6,1.8,12.9,4.2
						s1.4,7.7-2.5,9.6l-2.6,1.3c-12.5,1.6-119.7-1.2-156.3-1.5C173.6,202.7,126.8,198.9,93.9,187.2z"/>
					
						<radialGradient id="SVGID_00000025413007101227303880000001719508163933045167_" cx="217.7975" cy="59.8458" r="188.7139" gradientTransform="matrix(1 0 0 -1 0 248)" gradientUnits="userSpaceOnUse">
						<stop  offset="0" style="stop-color:#87ACB7"/>
						<stop  offset="0.1354" style="stop-color:#81A4AF"/>
						<stop  offset="0.3502" style="stop-color:#6F8F98"/>
						<stop  offset="0.6176" style="stop-color:#526C72"/>
						<stop  offset="0.9245" style="stop-color:#2B3D3F"/>
						<stop  offset="1" style="stop-color:#203031"/>
					</radialGradient>
					
						<path style="opacity:0.9355;fill:url(#SVGID_00000025413007101227303880000001719508163933045167_);enable-background:new    ;" d="
						M91.2,185.6c-6.5-1.5-14.8-4.8-19.2-9.3c-4.6-4.7-3.8-11.9-0.3-17.2c1.7-2.5,3.9-3.9,5.8-5.7c3.4-3.3,6.9-5.1,11-7.5
						c2.8-1.6,7.4-3.8,8.7-2.1c1.3,1.6-3.3,3.6-4.3,4.3c-1.9,1.5-3.5,3.4-4.9,5.3c-2,2.7-3.2,7.9-1.2,11c1.5,2.3,7.6,4.8,10.2,5.7
						c11.3,3.9,17.8,6.1,27.7,9c19.7,5.9,40.1,9.3,60.6,10.1c3.1,0.1,16.2,0.2,19.3,0.2c0.4,0,145.6,0.1,146,0.3
						c4.2,0.2,9.1,1.5,12.5,3.8c3.4,2.2,2.1,7.5-1.7,9.4l-2.6,1.3c-12.8,1.6-123.6-1.4-161.3-1.7C167.4,202,125.3,197.7,91.2,185.6z
						"/>
					
						<radialGradient id="SVGID_00000142167291383397813670000012884267744242542524_" cx="217.7977" cy="60.202" r="187.8745" gradientTransform="matrix(1 0 0 -1 0 248)" gradientUnits="userSpaceOnUse">
						<stop  offset="0" style="stop-color:#8CB2BC"/>
						<stop  offset="0.1325" style="stop-color:#85AAB4"/>
						<stop  offset="0.3429" style="stop-color:#74959D"/>
						<stop  offset="0.6046" style="stop-color:#577277"/>
						<stop  offset="0.905" style="stop-color:#2F4244"/>
						<stop  offset="1" style="stop-color:#213132"/>
					</radialGradient>
					
						<path style="opacity:0.9677;fill:url(#SVGID_00000142167291383397813670000012884267744242542524_);enable-background:new    ;" d="
						M88.6,184c-5.4-1.5-11.7-4.4-15.8-8.1c-4.8-4.4-3.9-11.3-0.6-16.7c1.4-2.3,3.4-3.6,5.1-5.3c3.3-3.4,6.7-5.1,10.7-7.6
						c2.6-1.6,7.2-3.9,8.5-2.4c1.3,1.6-3.3,3.4-4.2,4.1c-1.8,1.5-3.5,3.5-4.8,5.4c-1.9,2.8-3.3,8.2-0.9,11.2c1.7,2.1,7.5,4.5,10,5.4
						c11.4,3.9,17.8,6.1,27.7,9c19.7,5.9,40.2,9.4,60.8,10.2c3.2,0.1,11.4,0.2,14.6,0.2c0.2,0,150.2,0,150.4,0.1
						c4.1,0.1,8.6,1.3,12.1,3.4c3.5,2.1,2.8,7.3-1,9.2l-2.6,1.3c-13.1,1.5-127.5-1.6-166.3-1.9C161.2,201.2,123.9,196.6,88.6,184z"
						/>
					
						<radialGradient id="SVGID_00000068669195973430151140000015762968251039464594_" cx="217.8178" cy="60.5338" r="187.0712" gradientTransform="matrix(1 0 0 -1 0 248)" gradientUnits="userSpaceOnUse">
						<stop  offset="0" style="stop-color:#90B7C2"/>
						<stop  offset="0.1292" style="stop-color:#8AAFBA"/>
						<stop  offset="0.3342" style="stop-color:#789AA3"/>
						<stop  offset="0.5894" style="stop-color:#5B777D"/>
						<stop  offset="0.8821" style="stop-color:#34474A"/>
						<stop  offset="1" style="stop-color:#223233"/>
					</radialGradient>
					<path style="fill:url(#SVGID_00000068669195973430151140000015762968251039464594_);" d="M187.2,200.8
						c-32.2,0-64.8-5.4-101.2-18.4c-4.4-1.6-8.7-4-12.3-7c-5-4-4-10.8-0.9-16.1c1.2-2,2.9-3.3,4.4-4.9c3.2-3.5,6.5-5.1,10.4-7.7
						c2.4-1.6,7.1-4.1,8.3-2.6c1.3,1.5-3.3,3.3-4,4c-1.8,1.6-3.5,3.5-4.8,5.5c-1.9,2.8-3.3,8.6-0.7,11.5c1.8,2,7.4,4.3,9.9,5.1
						c11.5,4,17.8,6.1,27.8,9.1c19.8,6,40.3,9.4,60.9,10.3c3.3,0.1,6.6,0.2,10,0.2h154.8c4.1,0,8.1,1,11.7,2.9s3.5,7.2-0.2,9
						l-2.6,1.3C345.2,204.4,227.2,201.5,187.2,200.8z"/>
				</g>
			</g>
			<g>
				<defs>
					<path id="SVGID_00000178207345679978980210000010965194030162674867_" d="M390.1,198.1L368,186.3c-3.1-1.7-6.5-2.9-9.9-3.7
						l17-8.3c3.2-1.6,3.3-6.2,0.1-7.9l-20-10.7c-5.3-2.8-11.2-4.3-17.1-4.3H198.9c-27.2,0-51.6-4.6-79.9-10.2
						c-16.2-3.2-33.1-0.1-46.7,9.2c-19,13-16.5,26.5-11,35.7c4,6.6,10.1,11.5,16.9,15c28.3,14.5,59.7,22,91.6,22h177.3
						c6.1,0,12.1-1.4,17.6-4.1l25.2-12.3C393.5,205,393.6,200,390.1,198.1z"/>
				</defs>
				<clipPath id="SVGID_00000176732433712200121310000011795306365213840786_">
					<use xlink:href="#SVGID_00000178207345679978980210000010965194030162674867_"  style="overflow:visible;"/>
				</clipPath>
				<path style="clip-path:url(#SVGID_00000176732433712200121310000011795306365213840786_);fill:#517478;" d="M393.5,201.7
					c-0.1-0.2-0.3-0.3-0.5-0.2s-0.3,0.3-0.2,0.5c0,0.1,0.1-0.1-0.3,0.4c-0.4,0.3-1.3,0.7-2.6,1c-2.5,0.6-6.3,1-11.1,1.3
					c-9.7,0.6-23.5,0.5-40.2,0.4c-33.4-0.1-77.8-0.2-122.3-0.2c-11.1,0-22.2,0-33.2-0.1s-21.7,0.2-32.1-0.7
					c-10.4-0.9-20.4-2-29.6-4.4c-9.3-2.2-18-4.6-25.9-7.2c-7.9-2.6-14.9-5.6-20.7-8.9c-5.8-3.3-10.3-7.4-12.1-11.7
					c-1.8-4.4-1.9-8.3-1.1-10.7c0.7-2.4,1.6-3.5,1.6-3.5l0,0c0.1-0.1,0-0.3-0.1-0.4c-0.1-0.1-0.3,0-0.4,0.1c0,0-0.2,0.3-0.6,0.8
					c-0.4,0.6-0.9,1.4-1.4,2.7c-1,2.5-1,6.7,0.7,11.4c1.9,4.8,6.7,9,12.6,12.4c5.9,3.5,13,6.4,21,9.1c7.9,2.7,16.7,5.1,26,7.4
					c9.3,2.4,19.4,3.6,29.8,4.5c10.4,1,21.3,0.7,32.2,0.8s22.1,0.1,33.2,0.2c44.5,0.2,88.9,0.5,122.3,0.7
					c16.7,0.2,30.6,0.1,40.4-0.9c4.9-0.5,8.7-1.2,11.2-2c1.3-0.4,2.2-0.9,2.8-1.4c0.3-0.3,0.5-0.6,0.5-0.9
					C393.6,201.8,393.5,201.7,393.5,201.7z"/>
			</g>
		</g>
	</g>
	<g>
		
			<linearGradient id="SVGID_00000055707535201537620650000012317804423261239692_" gradientUnits="userSpaceOnUse" x1="288.5669" y1="74.6" x2="299.6267" y2="74.6" gradientTransform="matrix(1 0 0 -1 0 248)">
			<stop  offset="0" style="stop-color:#636363"/>
			<stop  offset="1" style="stop-color:#9D9D9D"/>
		</linearGradient>
		<polygon style="fill:url(#SVGID_00000055707535201537620650000012317804423261239692_);" points="274.4,169.2 274.4,165.3 
			291,165.3 303.6,181.5 280.2,181.5 		"/>
		
			<linearGradient id="SVGID_00000126288195219320110150000000533897115939415460_" gradientUnits="userSpaceOnUse" x1="219.0781" y1="74.6" x2="279.0115" y2="74.6" gradientTransform="matrix(1 0 0 -1 0 248)">
			<stop  offset="0" style="stop-color:#828282"/>
			<stop  offset="1" style="stop-color:#BCBCBC"/>
		</linearGradient>
		<polygon style="fill:url(#SVGID_00000126288195219320110150000000533897115939415460_);" points="274.4,165.3 293.5,165.3 
			306.1,181.5 282.7,181.5 		"/>
	</g>
	<g>
		
			<linearGradient id="SVGID_00000135684705863461419000000017117445892276818859_" gradientUnits="userSpaceOnUse" x1="241.7707" y1="74.6" x2="248.0552" y2="74.6" gradientTransform="matrix(-1 0 0 -1 427.8698 248)">
			<stop  offset="0" style="stop-color:#636363"/>
			<stop  offset="1" style="stop-color:#9D9D9D"/>
		</linearGradient>
		<polygon style="fill:url(#SVGID_00000135684705863461419000000017117445892276818859_);" points="194.2,169.2 194.1,165.3 
			177.6,165.3 185.9,181.5 188.4,181.5 		"/>
		
			<linearGradient id="SVGID_00000139993453237391494820000011214036579568829862_" gradientUnits="userSpaceOnUse" x1="181.2525" y1="74.6" x2="238.0983" y2="74.6" gradientTransform="matrix(-1 0 0 -1 427.8698 248)">
			<stop  offset="0" style="stop-color:#828282"/>
			<stop  offset="1" style="stop-color:#BCBCBC"/>
		</linearGradient>
		<path style="fill:url(#SVGID_00000139993453237391494820000011214036579568829862_);" d="M194.1,165.3H175l-10.8,13.9l-0.2,0.2
			c6.1,1.1,13.6,1.7,21.8,2.1L194.1,165.3z"/>
	</g>
</g>
</svg>
