<?xml version="1.0" encoding="utf-8"?>
<!-- Generator: Adobe Illustrator 26.1.0, SVG Export Plug-In . SVG Version: 6.00 Build 0)  -->
<svg version="1.1" id="_x2014_ÎÓÈ_x5F_1" xmlns="http://www.w3.org/2000/svg" xmlns:xlink="http://www.w3.org/1999/xlink"
	 x="0px" y="0px" viewBox="0 0 450 245.1" style="enable-background:new 0 0 450 245.1;" xml:space="preserve">
<style type="text/css">
	.st0{fill:url(#SVGID_1_);}
	.st1{fill:url(#SVGID_00000043423522046032673260000016395291178660844472_);}
	.st2{fill:url(#SVGID_00000018215835837935038170000014724871947487048348_);}
	.st3{fill:url(#SVGID_00000116221981704204543600000015267855700246570941_);}
	.st4{fill:url(#SVGID_00000028304753454823522150000003119299985359611778_);}
	.st5{fill:url(#SVGID_00000059284610022962065320000011647921412071138233_);}
	.st6{fill:url(#SVGID_00000105385740197550882920000005313216716083530663_);}
	.st7{opacity:0.7;fill:url(#SVGID_00000038379475514377640080000014228016732956285081_);enable-background:new    ;}
	.st8{opacity:0.7;fill:url(#SVGID_00000022521907680614519840000016963293599110645910_);enable-background:new    ;}
	.st9{fill:#B0B6B5;}
	.st10{opacity:0.6;fill:url(#SVGID_00000045593541333423141080000011161919298572860549_);enable-background:new    ;}
	.st11{fill:url(#SVGID_00000068671157361726664920000002230064894090662580_);}
	.st12{opacity:0.6;fill:url(#SVGID_00000049199657071276508150000010946761425521495449_);enable-background:new    ;}
	.st13{fill:url(#SVGID_00000176742611130628124570000013142452620088155784_);}
	.st14{fill:url(#SVGID_00000147214629247838532570000007059727696935833483_);}
	.st15{fill:url(#SVGID_00000085252404998936088250000017875425197024951960_);}
	.st16{fill:url(#SVGID_00000041261591610202017930000011002986686550301588_);}
	.st17{fill:url(#SVGID_00000101819458253546064490000016894517277514547868_);}
	.st18{fill:url(#SVGID_00000178164176418527216770000002965597844538148750_);}
	.st19{opacity:0.6;fill:url(#SVGID_00000170265642673583503520000008150370821553795473_);enable-background:new    ;}
	.st20{fill:url(#SVGID_00000041281095679390555410000003739958126307192753_);}
	.st21{fill:url(#SVGID_00000020357283065638188780000013030316089315248522_);}
	.st22{fill:#2B2D2D;}
	.st23{fill:url(#SVGID_00000080171616148434401550000000474318452979853447_);}
	.st24{fill:url(#SVGID_00000155113504486920612060000010312229465431770785_);}
	.st25{fill:url(#SVGID_00000124876171804400380360000014055840130863964582_);}
	.st26{fill:url(#SVGID_00000026163337763678472100000016762883895634151342_);}
	.st27{fill:url(#SVGID_00000013903227101647920260000012876877638101731211_);}
</style>
<g id="_x31_0_00000044862441769682420090000014485265046875293857_">
	<g>
		
			<linearGradient id="SVGID_1_" gradientUnits="userSpaceOnUse" x1="-382.2824" y1="-740.3442" x2="-380.2237" y2="-742.9948" gradientTransform="matrix(0.6915 -0.7224 -0.7224 -0.6915 83.2541 -688.2938)">
			<stop  offset="0" style="stop-color:#626868"/>
			<stop  offset="2.591962e-02" style="stop-color:#6C7272"/>
			<stop  offset="7.073732e-02" style="stop-color:#878F8E"/>
			<stop  offset="0.1287" style="stop-color:#B3BCBA"/>
			<stop  offset="0.1498" style="stop-color:#C5CECC"/>
			<stop  offset="0.31" style="stop-color:#9EA6A5"/>
			<stop  offset="0.4783" style="stop-color:#E6E8E8"/>
			<stop  offset="0.5175" style="stop-color:#D0D4D3"/>
			<stop  offset="0.6123" style="stop-color:#9EA6A5"/>
			<stop  offset="0.6736" style="stop-color:#929A99"/>
			<stop  offset="0.7159" style="stop-color:#7F8685"/>
			<stop  offset="0.807" style="stop-color:#5B6060"/>
			<stop  offset="0.8549" style="stop-color:#4D5252"/>
			<stop  offset="0.9039" style="stop-color:#525857"/>
			<stop  offset="0.9661" style="stop-color:#626767"/>
			<stop  offset="1" style="stop-color:#6D7372"/>
		</linearGradient>
		<path class="st0" d="M355.2,114.2l3.1-29.4l-1.4-0.1l-3.2,30.6C354.1,114.8,354.6,114.5,355.2,114.2z"/>
		
			<linearGradient id="SVGID_00000098907428043513161470000000953833575514352021_" gradientUnits="userSpaceOnUse" x1="383.6798" y1="229.3493" x2="385.7373" y2="226.7003" gradientTransform="matrix(0.9981 6.170000e-02 6.170000e-02 -0.9981 -36.5713 313.2292)">
			<stop  offset="0" style="stop-color:#626868"/>
			<stop  offset="2.591962e-02" style="stop-color:#6C7272"/>
			<stop  offset="7.073732e-02" style="stop-color:#878F8E"/>
			<stop  offset="0.1287" style="stop-color:#B3BCBA"/>
			<stop  offset="0.1498" style="stop-color:#C5CECC"/>
			<stop  offset="0.31" style="stop-color:#9EA6A5"/>
			<stop  offset="0.4783" style="stop-color:#E6E8E8"/>
			<stop  offset="0.5175" style="stop-color:#D0D4D3"/>
			<stop  offset="0.6123" style="stop-color:#9EA6A5"/>
			<stop  offset="0.6736" style="stop-color:#929A99"/>
			<stop  offset="0.7159" style="stop-color:#7F8685"/>
			<stop  offset="0.807" style="stop-color:#5B6060"/>
			<stop  offset="0.8549" style="stop-color:#4D5252"/>
			<stop  offset="0.9039" style="stop-color:#525857"/>
			<stop  offset="0.9661" style="stop-color:#626767"/>
			<stop  offset="1" style="stop-color:#6D7372"/>
		</linearGradient>
		<polygon style="fill:url(#SVGID_00000098907428043513161470000000953833575514352021_);" points="382.4,95 340.4,123.5 
			341.2,124.7 383.1,96.2 		"/>
		<g>
			
				<linearGradient id="SVGID_00000053502911615607216060000008376313306734591123_" gradientUnits="userSpaceOnUse" x1="393.5998" y1="387.2692" x2="393.5998" y2="370.2384" gradientTransform="matrix(0.9881 0.1536 0.1536 -0.9881 -100.1112 404.6106)">
				<stop  offset="0" style="stop-color:#292B2B"/>
				<stop  offset="1" style="stop-color:#0C0C0C"/>
			</linearGradient>
			<path style="fill:url(#SVGID_00000053502911615607216060000008376313306734591123_);" d="M390.7,91c-45.6-12.1-86-13.1-86-13.1
				l17.7,24.1c1.8-0.9,4.8,0.5,6.4-0.4c13-6.9,39.1-7.5,51.1-3.1c0.3,0.1,0.6,0.1,0.9-0.1c1.8-1.1,8.6-5.2,10.2-6.5
				C391.3,91.7,391.1,91.1,390.7,91z"/>
			
				<linearGradient id="SVGID_00000060724188616861539410000002298654220132812969_" gradientUnits="userSpaceOnUse" x1="393.5756" y1="387.524" x2="393.5756" y2="371.1248" gradientTransform="matrix(0.9881 0.1536 0.1536 -0.9881 -100.1112 404.6106)">
				<stop  offset="0" style="stop-color:#292B2B"/>
				<stop  offset="1" style="stop-color:#0C0C0C"/>
			</linearGradient>
			<path style="fill:url(#SVGID_00000060724188616861539410000002298654220132812969_);" d="M391,91.9c0.2-0.3,0.1-0.8-0.3-0.9
				c-45.6-12.1-86-13.1-86-13.1l7.3,7.2c9,0,20.3-0.1,40,1C363.7,86.8,377.1,88.8,391,91.9z"/>
		</g>
		
			<linearGradient id="SVGID_00000122679694711194029830000009221050537238764477_" gradientUnits="userSpaceOnUse" x1="294.7399" y1="170.456" x2="294.7399" y2="130.1921" gradientTransform="matrix(1 0 0 -1 0 248)">
			<stop  offset="0" style="stop-color:#292B2B"/>
			<stop  offset="1" style="stop-color:#0C0C0C"/>
		</linearGradient>
		<path style="fill:url(#SVGID_00000122679694711194029830000009221050537238764477_);" d="M302,77.8c0,0-2.1-0.4-6-0.2
			c0,0-16,0.8-27.6,2.4c-1.2,0.2-2.4,0.5-3.6,1l-8.3,3.8c-0.5,0.2-0.4,1,0.2,1c25.9,3.4,45.3,10.1,53.8,15
			c2.9,1.7,12.1,18.2,16.7,30.7c1.7,0.8,6.1,1.4,6.1,1.4l-14.8-31.7L302,77.8z"/>
		
			<linearGradient id="SVGID_00000158713595281769279550000001499927595256125824_" gradientUnits="userSpaceOnUse" x1="281.75" y1="170.1437" x2="281.75" y2="155.7173" gradientTransform="matrix(1 0 0 -1 0 248)">
			<stop  offset="0" style="stop-color:#292B2B"/>
			<stop  offset="1" style="stop-color:#0C0C0C"/>
		</linearGradient>
		<path style="fill:url(#SVGID_00000158713595281769279550000001499927595256125824_);" d="M307.2,85.2l-5.2-7.4c0,0-2.1-0.4-6-0.2
			c0,0-15.5,0.8-27,2.3c-1.4,0.2-2.8,0.5-4.1,1.1l-8.3,3.8c-0.2,0.1-0.3,0.2-0.3,0.4C256.3,85.2,307.2,85.2,307.2,85.2z"/>
	</g>
	<g>
		
			<linearGradient id="SVGID_00000039094211963041144930000008619648884905678501_" gradientUnits="userSpaceOnUse" x1="415.7192" y1="39.937" x2="415.7192" y2="38.7633" gradientTransform="matrix(1 0 0 -1 0 248)">
			<stop  offset="0" style="stop-color:#CB9259"/>
			<stop  offset="1" style="stop-color:#B56C28"/>
		</linearGradient>
		<path style="fill:url(#SVGID_00000039094211963041144930000008619648884905678501_);" d="M431.8,210.5c0.2,0-0.3-2.2-3.4-2.2
			c-0.8,0-17.3,0-25.8,0l-3,3L431.8,210.5z"/>
		<g>
			<g>
				<g>
					
						<linearGradient id="SVGID_00000171717509579161793530000017169596305559215751_" gradientUnits="userSpaceOnUse" x1="317.7973" y1="109.5192" x2="204.2743" y2="120.6891" gradientTransform="matrix(1 0 0 -1 0 248)">
						<stop  offset="0" style="stop-color:#80B4DB"/>
						<stop  offset="1" style="stop-color:#DEF1FF"/>
					</linearGradient>
					
						<path style="opacity:0.7;fill:url(#SVGID_00000171717509579161793530000017169596305559215751_);enable-background:new    ;" d="
						M223,106.5l-56.6,23.7l48.4,20.8l119.9,3.7v-19C284.4,116.6,223,106.5,223,106.5z"/>
					
						<linearGradient id="SVGID_00000033328706558837647910000015542459691571744956_" gradientUnits="userSpaceOnUse" x1="250.35" y1="101.4142" x2="250.35" y2="48.4138" gradientTransform="matrix(1 0 0 -1 0 248)">
						<stop  offset="0" style="stop-color:#80B4DB"/>
						<stop  offset="1" style="stop-color:#DEF1FF"/>
					</linearGradient>
					
						<path style="opacity:0.7;fill:url(#SVGID_00000033328706558837647910000015542459691571744956_);enable-background:new    ;" d="
						M334.5,134.8c-50.4-19.1-111.7-29.2-111.7-29.2l-56.6,23.7l5,2.2l51.5-21.6c0,0,17.6,2.9,41.6,8.5l-43.7,26.9l1.4,2.3l46-28.3
						c20.2,4.8,44.3,11.5,66.3,19.8v-4.3H334.5z"/>
					<g>
						<path class="st9" d="M267.6,114.5L220,143.8l1.4,2.3l48.9-30.1C269.3,115.6,268.4,115.1,267.6,114.5z"/>
						
							<linearGradient id="SVGID_00000114061644456656460310000016619790257832466852_" gradientUnits="userSpaceOnUse" x1="261.5848" y1="131.9334" x2="223.2355" y2="101.4418" gradientTransform="matrix(1 0 0 -1 0 248)">
							<stop  offset="0" style="stop-color:#FDFFFF"/>
							<stop  offset="9.055437e-02" style="stop-color:#F7F9F9"/>
							<stop  offset="0.2169" style="stop-color:#E5E6E6"/>
							<stop  offset="0.3643" style="stop-color:#C7C9C9"/>
							<stop  offset="0.5277" style="stop-color:#9E9F9F"/>
							<stop  offset="0.7042" style="stop-color:#696A6A"/>
							<stop  offset="0.8888" style="stop-color:#2A2A2A"/>
							<stop  offset="1" style="stop-color:#000000"/>
						</linearGradient>
						
							<path style="opacity:0.6;fill:url(#SVGID_00000114061644456656460310000016619790257832466852_);enable-background:new    ;" d="
							M262.1,118.6L221,143.9l0.6,0.9l42-25.9C263.1,118.8,262.6,118.7,262.1,118.6z"/>
						
							<linearGradient id="SVGID_00000067931761319253249200000003799707281265799568_" gradientUnits="userSpaceOnUse" x1="208.0076" y1="127.2909" x2="349.5693" y2="97.2005" gradientTransform="matrix(1 0 0 -1 0 248)">
							<stop  offset="0" style="stop-color:#626868"/>
							<stop  offset="2.591962e-02" style="stop-color:#6C7272"/>
							<stop  offset="7.073732e-02" style="stop-color:#878F8E"/>
							<stop  offset="0.1287" style="stop-color:#B3BCBA"/>
							<stop  offset="0.1498" style="stop-color:#C5CECC"/>
							<stop  offset="0.31" style="stop-color:#9EA6A5"/>
							<stop  offset="0.4783" style="stop-color:#E6E8E8"/>
							<stop  offset="0.5175" style="stop-color:#D0D4D3"/>
							<stop  offset="0.6123" style="stop-color:#9EA6A5"/>
							<stop  offset="0.6736" style="stop-color:#929A99"/>
							<stop  offset="0.7159" style="stop-color:#7F8685"/>
							<stop  offset="0.807" style="stop-color:#5B6060"/>
							<stop  offset="0.8549" style="stop-color:#4D5252"/>
							<stop  offset="0.9039" style="stop-color:#525857"/>
							<stop  offset="0.9661" style="stop-color:#626767"/>
							<stop  offset="1" style="stop-color:#6D7372"/>
						</linearGradient>
						<path style="fill:url(#SVGID_00000067931761319253249200000003799707281265799568_);" d="M224.5,105.3c-1-0.2-2.1-0.1-3.1,0.3
							L166,128.8l1.1,2.5l54.8-22.9c1-0.4,2-0.5,3-0.3c10.8,1.9,64.8,11.9,109.5,28.8l1-2.6C290,117.3,234.5,107.1,224.5,105.3z"/>
						
							<radialGradient id="SVGID_00000076571062397618019740000011397046365012884661_" cx="228.1695" cy="143.5867" r="112.7316" gradientTransform="matrix(1 0 0 -1 0 248)" gradientUnits="userSpaceOnUse">
							<stop  offset="0" style="stop-color:#FDFFFF"/>
							<stop  offset="9.055437e-02" style="stop-color:#F7F9F9"/>
							<stop  offset="0.2169" style="stop-color:#E5E6E6"/>
							<stop  offset="0.3643" style="stop-color:#C7C9C9"/>
							<stop  offset="0.5277" style="stop-color:#9E9F9F"/>
							<stop  offset="0.7042" style="stop-color:#696A6A"/>
							<stop  offset="0.8888" style="stop-color:#2A2A2A"/>
							<stop  offset="1" style="stop-color:#000000"/>
						</radialGradient>
						
							<path style="opacity:0.6;fill:url(#SVGID_00000076571062397618019740000011397046365012884661_);enable-background:new    ;" d="
							M333.8,135.4c-44.7-16.9-98.5-26.8-108.9-28.6c-0.4-0.1-0.7-0.1-1.1-0.1c-0.8,0-1.6,0.2-2.4,0.5l-54,22.6l-0.4-1l54.7-22.9
							c0.6-0.2,1.2-0.4,1.8-0.4c0.3,0,0.5,0,0.8,0.1c10.5,1.8,65,11.9,109.8,28.8L333.8,135.4z"/>
					</g>
				</g>
				
					<linearGradient id="SVGID_00000062890137426854864620000011190080293990512778_" gradientUnits="userSpaceOnUse" x1="187.1" y1="123.2983" x2="187.1" y2="40.5872" gradientTransform="matrix(1 0 0 -1 0 248)">
					<stop  offset="0" style="stop-color:#DFE7EF"/>
					<stop  offset="0.2819" style="stop-color:#D2DEEA"/>
					<stop  offset="0.7988" style="stop-color:#B1C6DD"/>
					<stop  offset="1" style="stop-color:#A2BBD7"/>
				</linearGradient>
				<path style="fill:url(#SVGID_00000062890137426854864620000011190080293990512778_);" d="M324.9,113.5c2.2,10.4,6,24.1-8.5,24.1
					c-6,0-111.4-3.4-147.5-10.5c0,0-90.7,3.2-117.3,5.8c-5.8,0.5-26.4,5.5-26.4,5.5l250.3,21.4c23.3-5.1,49.7-0.7,73.5-0.8
					C346.6,148,334,120.4,324.9,113.5z"/>
				
					<linearGradient id="SVGID_00000152265803764085515170000005453012149848213432_" gradientUnits="userSpaceOnUse" x1="328.3544" y1="131.0488" x2="328.3544" y2="84.518" gradientTransform="matrix(1 0 0 -1 0 248)">
					<stop  offset="0" style="stop-color:#DFE7EF"/>
					<stop  offset="0.2819" style="stop-color:#D2DEEA"/>
					<stop  offset="0.7988" style="stop-color:#B1C6DD"/>
					<stop  offset="1" style="stop-color:#A2BBD7"/>
				</linearGradient>
				<path style="fill:url(#SVGID_00000152265803764085515170000005453012149848213432_);" d="M334.6,168.1
					c0.2-51.1-39.2-89-39.2-90.8c0-0.8,12.3-0.1,13.1,0.3c38.2,34.8,49.9,78.2,52.8,95.4C361.8,175.7,340.8,177.3,334.6,168.1z"/>
				
					<linearGradient id="SVGID_00000025430279437963373390000010346874327404762767_" gradientUnits="userSpaceOnUse" x1="325.4124" y1="257.3514" x2="348.7774" y2="217.9159" gradientTransform="matrix(0.9981 6.170000e-02 6.170000e-02 -0.9981 -36.5713 313.2292)">
					<stop  offset="0" style="stop-color:#D2D8D9"/>
					<stop  offset="0.1091" style="stop-color:#CAD0D1"/>
					<stop  offset="0.2821" style="stop-color:#B3B9BA"/>
					<stop  offset="0.4976" style="stop-color:#8F9494"/>
					<stop  offset="0.747" style="stop-color:#5C6060"/>
					<stop  offset="1" style="stop-color:#212424"/>
				</linearGradient>
				<path style="fill:url(#SVGID_00000025430279437963373390000010346874327404762767_);" d="M304.2,86.8l13.6,0.8
					c-3.1-3.3-6.3-6.6-9.9-9.9c-0.4-0.1-1.7-0.2-4-0.4c-3.4-0.2-6.1-0.2-7.4-0.1c0.5,0.6,1.2,1.5,1.9,2.4
					C299.9,81.4,301.9,83.9,304.2,86.8z"/>
				
					<linearGradient id="SVGID_00000084491149226047162390000006462129915502265011_" gradientUnits="userSpaceOnUse" x1="209.9865" y1="52.6315" x2="209.9865" y2="26.6403" gradientTransform="matrix(1 0 0 -1 0 248)">
					<stop  offset="0" style="stop-color:#DFE7EF"/>
					<stop  offset="0.2819" style="stop-color:#D2DEEA"/>
					<stop  offset="0.7988" style="stop-color:#B1C6DD"/>
					<stop  offset="1" style="stop-color:#A2BBD7"/>
				</linearGradient>
				<path style="fill:url(#SVGID_00000084491149226047162390000006462129915502265011_);" d="M11.8,137.9c-3.4,0.8-4.9,5.2-4.6,5.6
					c3.8,5.2,11.3,7.3,66.4,69.3c5.1,5.7,12.4,9,20,9h315.7c13.6,0-16.1-72.2-24.8-72.3c0,0-115.9-10.7-213.8-12.2
					C105.6,136.4,49.6,135.5,11.8,137.9z"/>
				
					<radialGradient id="SVGID_00000051378139106178011020000015260298302328542347_" cx="172.6618" cy="107.7971" r="163.3864" gradientTransform="matrix(1 0 0 -1 0 248)" gradientUnits="userSpaceOnUse">
					<stop  offset="0" style="stop-color:#D2D8D9"/>
					<stop  offset="0.1091" style="stop-color:#CAD0D1"/>
					<stop  offset="0.2821" style="stop-color:#B3B9BA"/>
					<stop  offset="0.4976" style="stop-color:#8F9494"/>
					<stop  offset="0.747" style="stop-color:#5C6060"/>
					<stop  offset="1" style="stop-color:#212424"/>
				</radialGradient>
				<path style="fill:url(#SVGID_00000051378139106178011020000015260298302328542347_);" d="M7.5,143.8c-0.1-0.1-0.1-0.2-0.2-0.2
					c-0.3-0.4,1.2-4.8,4.6-5.6c37.7-2.4,93.8-1.5,159-0.6c97.9,1.5,213.8,12.2,213.8,12.2c1.5,0,3.7,2.2,6.1,5.8
					c-11.5-1-127.7-10.7-219.9-12.1C104.1,142.2,49.2,142.4,7.5,143.8z"/>
				
					<linearGradient id="SVGID_00000145056320750210941120000003763619449572771982_" gradientUnits="userSpaceOnUse" x1="209.8" y1="38.0419" x2="209.8" y2="95.9003" gradientTransform="matrix(1 0 0 -1 0 248)">
					<stop  offset="0" style="stop-color:#292B2B"/>
					<stop  offset="1" style="stop-color:#0C0C0C"/>
				</linearGradient>
				<path style="fill:url(#SVGID_00000145056320750210941120000003763619449572771982_);" d="M412.5,210.6
					c-0.6-3.9-1.7-8.5-3.2-13.4c-89.3-42.6-206.6-50.7-280-52.9c-17.1-0.5-122.2-0.7-122.2-0.7c4,4.7,8.2,7.5,20.8,19.9
					c19.2,19.2,44.2,31.6,71,35.6c23.8,3.5,58.4,6.4,110.2,8.2C271.3,209.6,402.2,209.8,412.5,210.6z"/>
				
					<linearGradient id="SVGID_00000137846079559934542970000018187572395918978707_" gradientUnits="userSpaceOnUse" x1="85.254" y1="-14.8466" x2="100.6104" y2="37.3652" gradientTransform="matrix(1 0 0 -1 0 248)">
					<stop  offset="0" style="stop-color:#D4DDE6"/>
					<stop  offset="0.7626" style="stop-color:#BBC6D1"/>
					<stop  offset="1" style="stop-color:#B2BEC9"/>
				</linearGradient>
				
					<path style="opacity:0.6;fill:url(#SVGID_00000137846079559934542970000018187572395918978707_);enable-background:new    ;" d="
					M47.5,183.9c7.3,7.8,15.9,17.3,26.2,28.9c5.1,5.7,12.4,9,20,9h64.6C143.7,218.1,89.3,219.1,47.5,183.9z"/>
			</g>
			
				<linearGradient id="SVGID_00000088131619951591667740000011802987841580474547_" gradientUnits="userSpaceOnUse" x1="6.8601" y1="117.345" x2="415.8148" y2="57.1644" gradientTransform="matrix(1 0 0 -1 0 248)">
				<stop  offset="0" style="stop-color:#626868"/>
				<stop  offset="1.337791e-02" style="stop-color:#6C7272"/>
				<stop  offset="3.650970e-02" style="stop-color:#878F8E"/>
				<stop  offset="6.642971e-02" style="stop-color:#B3BCBA"/>
				<stop  offset="7.729470e-02" style="stop-color:#C5CECC"/>
				<stop  offset="0.1304" style="stop-color:#C5CECC"/>
				<stop  offset="0.1554" style="stop-color:#9EA6A5"/>
				<stop  offset="0.2327" style="stop-color:#9EA6A5"/>
				<stop  offset="0.2464" style="stop-color:#E6E8E8"/>
				<stop  offset="0.3237" style="stop-color:#E6E8E8"/>
				<stop  offset="0.3389" style="stop-color:#D0D4D3"/>
				<stop  offset="0.3756" style="stop-color:#9EA6A5"/>
				<stop  offset="0.5286" style="stop-color:#929A99"/>
				<stop  offset="0.5597" style="stop-color:#686E6D"/>
				<stop  offset="0.5797" style="stop-color:#515656"/>
				<stop  offset="0.6618" style="stop-color:#515656"/>
				<stop  offset="0.6726" style="stop-color:#757979"/>
				<stop  offset="0.6926" style="stop-color:#B1B5B5"/>
				<stop  offset="0.7073" style="stop-color:#D8DADA"/>
				<stop  offset="0.715" style="stop-color:#E6E8E8"/>
				<stop  offset="0.7585" style="stop-color:#E6E8E8"/>
				<stop  offset="0.7729" style="stop-color:#909494"/>
				<stop  offset="0.7942" style="stop-color:#757979"/>
				<stop  offset="0.8174" style="stop-color:#5F6464"/>
				<stop  offset="0.8397" style="stop-color:#525656"/>
				<stop  offset="0.8598" style="stop-color:#4D5252"/>
				<stop  offset="0.8723" style="stop-color:#525857"/>
				<stop  offset="0.8884" style="stop-color:#626767"/>
				<stop  offset="0.9062" style="stop-color:#7B8181"/>
				<stop  offset="0.9227" style="stop-color:#98A09F"/>
				<stop  offset="0.9662" style="stop-color:#98A09F"/>
				<stop  offset="0.9737" style="stop-color:#7F8685"/>
				<stop  offset="0.9807" style="stop-color:#6D7372"/>
			</linearGradient>
			<path style="fill:url(#SVGID_00000088131619951591667740000011802987841580474547_);" d="M408.8,195.3
				c-66.9-31.5-158.3-48.6-279.4-52.4c-16.9-0.5-120.9-0.7-121.9-0.7c-0.8,0-0.5,2.7,0.3,2.7c1,0,104.5,0.2,121.6,0.7
				c121.7,3.8,213.2,21.1,279.9,52.9c0.2,0.1,0.4,0.1,0.6,0.1C410.3,198.7,409.3,195.6,408.8,195.3z"/>
			
				<linearGradient id="SVGID_00000094600269770007987460000010729392525695858359_" gradientUnits="userSpaceOnUse" x1="16.8635" y1="115.106" x2="408.495" y2="60.852" gradientTransform="matrix(1 0 0 -1 0 248)">
				<stop  offset="0" style="stop-color:#000000"/>
				<stop  offset="1.488912e-02" style="stop-color:#050505"/>
				<stop  offset="3.319320e-02" style="stop-color:#131414"/>
				<stop  offset="5.328851e-02" style="stop-color:#2B2D2D"/>
				<stop  offset="7.467722e-02" style="stop-color:#4D504F"/>
				<stop  offset="9.709226e-02" style="stop-color:#787D7C"/>
				<stop  offset="0.12" style="stop-color:#ABB3B1"/>
				<stop  offset="0.1304" style="stop-color:#C5CECC"/>
				<stop  offset="0.1554" style="stop-color:#9EA6A5"/>
				<stop  offset="0.2327" style="stop-color:#9EA6A5"/>
				<stop  offset="0.2512" style="stop-color:#F3F5F5"/>
				<stop  offset="0.3237" style="stop-color:#E6E8E8"/>
				<stop  offset="0.3389" style="stop-color:#D0D4D3"/>
				<stop  offset="0.3756" style="stop-color:#9EA6A5"/>
				<stop  offset="0.5286" style="stop-color:#929A99"/>
				<stop  offset="0.5597" style="stop-color:#686E6D"/>
				<stop  offset="0.5797" style="stop-color:#515656"/>
				<stop  offset="0.6618" style="stop-color:#515656"/>
				<stop  offset="0.6726" style="stop-color:#757979"/>
				<stop  offset="0.6926" style="stop-color:#B1B5B5"/>
				<stop  offset="0.7073" style="stop-color:#D8DADA"/>
				<stop  offset="0.715" style="stop-color:#E6E8E8"/>
				<stop  offset="0.7585" style="stop-color:#E6E8E8"/>
				<stop  offset="0.7729" style="stop-color:#909494"/>
				<stop  offset="0.7942" style="stop-color:#757979"/>
				<stop  offset="0.8174" style="stop-color:#5F6464"/>
				<stop  offset="0.8397" style="stop-color:#525656"/>
				<stop  offset="0.8598" style="stop-color:#4D5252"/>
				<stop  offset="0.8869" style="stop-color:#484C4C"/>
				<stop  offset="0.9216" style="stop-color:#393D3D"/>
				<stop  offset="0.9603" style="stop-color:#202323"/>
				<stop  offset="1" style="stop-color:#000000"/>
			</linearGradient>
			<path style="fill:url(#SVGID_00000094600269770007987460000010729392525695858359_);" d="M409,197.3
				c-66.7-31.7-158.2-48.9-279.6-52.7c-16.7-0.5-115.6-0.7-121.3-0.7c-0.1-0.3-0.2-0.8-0.1-1.1c6.9,0,105.1,0.2,121.5,0.7
				c121,3.8,212.3,20.9,279.1,52.3C408.5,195.9,408.8,196.6,409,197.3z"/>
			<g>
				<path class="st22" d="M83.2,152.8c-2.1-0.5-4.9-0.9-7.9-1H75c-2.9,0-5.6,0.2-7.6,0.6c-2.7,0.5-3.9,1.3-3.9,2.5s1.2,2,3.9,2.6
					c2.1,0.5,4.9,0.8,7.8,0.9c0.3,0,0.5,0,0.8,0c2.7,0,5.2-0.1,7.1-0.5c2.7-0.5,3.9-1.3,4-2.5C87,154.4,85.8,153.5,83.2,152.8z"/>
				<path class="st22" d="M139.9,153.7c-2.1-0.5-4.9-0.9-7.9-1h-0.3c-2.9,0-5.6,0.2-7.6,0.6c-2.7,0.5-3.9,1.3-3.9,2.5s1.2,2,3.9,2.6
					c2.1,0.5,4.9,0.8,7.8,0.9c0.3,0,0.5,0,0.8,0c2.7,0,5.2-0.1,7.1-0.5c2.7-0.5,3.9-1.3,4-2.5C143.8,155.3,142.5,154.4,139.9,153.7z
					"/>
				<path class="st22" d="M196.7,154.7c-2.1-0.5-4.9-0.9-7.9-1h-0.3c-2.9,0-5.6,0.2-7.6,0.6c-2.7,0.5-3.9,1.3-3.9,2.5s1.2,2,3.9,2.6
					c2.1,0.5,4.9,0.8,7.8,0.9c0.3,0,0.5,0,0.8,0c2.7,0,5.2-0.1,7.1-0.5c2.7-0.5,3.9-1.3,4-2.5C200.5,156.3,199.3,155.4,196.7,154.7z
					"/>
			</g>
			<g>
				<g>
					
						<linearGradient id="SVGID_00000036219756106058843360000006548770234237585798_" gradientUnits="userSpaceOnUse" x1="78.787" y1="119.328" x2="85.622" y2="107.4894" gradientTransform="matrix(0.9999 1.670000e-02 1.670000e-02 -0.9999 -8.8317 267.1897)">
						<stop  offset="0" style="stop-color:#626868"/>
						<stop  offset="1.337791e-02" style="stop-color:#6C7272"/>
						<stop  offset="3.650970e-02" style="stop-color:#878F8E"/>
						<stop  offset="6.642971e-02" style="stop-color:#B3BCBA"/>
						<stop  offset="7.729470e-02" style="stop-color:#C5CECC"/>
						<stop  offset="0.1304" style="stop-color:#C5CECC"/>
						<stop  offset="0.1554" style="stop-color:#9EA6A5"/>
						<stop  offset="0.2327" style="stop-color:#9EA6A5"/>
						<stop  offset="0.2464" style="stop-color:#E6E8E8"/>
						<stop  offset="0.3237" style="stop-color:#E6E8E8"/>
						<stop  offset="0.3389" style="stop-color:#D0D4D3"/>
						<stop  offset="0.3756" style="stop-color:#9EA6A5"/>
						<stop  offset="0.5286" style="stop-color:#929A99"/>
						<stop  offset="0.5597" style="stop-color:#686E6D"/>
						<stop  offset="0.5797" style="stop-color:#515656"/>
						<stop  offset="0.6618" style="stop-color:#515656"/>
						<stop  offset="0.6726" style="stop-color:#757979"/>
						<stop  offset="0.6926" style="stop-color:#B1B5B5"/>
						<stop  offset="0.7073" style="stop-color:#D8DADA"/>
						<stop  offset="0.715" style="stop-color:#E6E8E8"/>
						<stop  offset="0.7585" style="stop-color:#E6E8E8"/>
						<stop  offset="0.7729" style="stop-color:#909494"/>
						<stop  offset="0.7942" style="stop-color:#757979"/>
						<stop  offset="0.8174" style="stop-color:#5F6464"/>
						<stop  offset="0.8397" style="stop-color:#525656"/>
						<stop  offset="0.8598" style="stop-color:#4D5252"/>
						<stop  offset="0.8723" style="stop-color:#525857"/>
						<stop  offset="0.8884" style="stop-color:#626767"/>
						<stop  offset="0.9062" style="stop-color:#7B8181"/>
						<stop  offset="0.9227" style="stop-color:#98A09F"/>
						<stop  offset="0.9662" style="stop-color:#98A09F"/>
						<stop  offset="0.9737" style="stop-color:#7F8685"/>
						<stop  offset="0.9807" style="stop-color:#6D7372"/>
					</linearGradient>
					<path style="fill:url(#SVGID_00000036219756106058843360000006548770234237585798_);" d="M83.2,152.8c-2.1-0.5-4.9-0.9-7.9-1
						H75c-2.9,0-5.6,0.2-7.6,0.6c-2.7,0.5-3.9,1.3-3.9,2.5s1.2,2,3.9,2.6c2.1,0.5,4.9,0.8,7.8,0.9c0.3,0,0.5,0,0.8,0
						c2.7,0,5.2-0.1,7.1-0.5c2.7-0.5,3.9-1.3,4-2.5C87,154.4,85.8,153.5,83.2,152.8z M82.8,157.1c-1.8,0.3-4.2,0.5-6.9,0.5
						c-0.2,0-0.5,0-0.8,0c-3-0.1-5.7-0.4-7.7-0.9s-3.2-1.1-3.2-1.7c0-0.7,1.2-1.2,3.2-1.6c1.9-0.4,4.5-0.6,7.5-0.6
						c0.1,0,0.2,0,0.3,0c3,0.1,5.7,0.4,7.7,0.9s3.1,1.2,3.1,1.8S84.8,156.8,82.8,157.1z"/>
				</g>
				<g>
					
						<linearGradient id="SVGID_00000174589077276971020620000008510260089402658733_" gradientUnits="userSpaceOnUse" x1="135.5405" y1="119.3241" x2="142.3754" y2="107.4856" gradientTransform="matrix(0.9999 1.670000e-02 1.670000e-02 -0.9999 -8.8317 267.1897)">
						<stop  offset="0" style="stop-color:#626868"/>
						<stop  offset="1.337791e-02" style="stop-color:#6C7272"/>
						<stop  offset="3.650970e-02" style="stop-color:#878F8E"/>
						<stop  offset="6.642971e-02" style="stop-color:#B3BCBA"/>
						<stop  offset="7.729470e-02" style="stop-color:#C5CECC"/>
						<stop  offset="0.1304" style="stop-color:#C5CECC"/>
						<stop  offset="0.1554" style="stop-color:#9EA6A5"/>
						<stop  offset="0.2327" style="stop-color:#9EA6A5"/>
						<stop  offset="0.2464" style="stop-color:#E6E8E8"/>
						<stop  offset="0.3237" style="stop-color:#E6E8E8"/>
						<stop  offset="0.3389" style="stop-color:#D0D4D3"/>
						<stop  offset="0.3756" style="stop-color:#9EA6A5"/>
						<stop  offset="0.5286" style="stop-color:#929A99"/>
						<stop  offset="0.5597" style="stop-color:#686E6D"/>
						<stop  offset="0.5797" style="stop-color:#515656"/>
						<stop  offset="0.6618" style="stop-color:#515656"/>
						<stop  offset="0.6726" style="stop-color:#757979"/>
						<stop  offset="0.6926" style="stop-color:#B1B5B5"/>
						<stop  offset="0.7073" style="stop-color:#D8DADA"/>
						<stop  offset="0.715" style="stop-color:#E6E8E8"/>
						<stop  offset="0.7585" style="stop-color:#E6E8E8"/>
						<stop  offset="0.7729" style="stop-color:#909494"/>
						<stop  offset="0.7942" style="stop-color:#757979"/>
						<stop  offset="0.8174" style="stop-color:#5F6464"/>
						<stop  offset="0.8397" style="stop-color:#525656"/>
						<stop  offset="0.8598" style="stop-color:#4D5252"/>
						<stop  offset="0.8723" style="stop-color:#525857"/>
						<stop  offset="0.8884" style="stop-color:#626767"/>
						<stop  offset="0.9062" style="stop-color:#7B8181"/>
						<stop  offset="0.9227" style="stop-color:#98A09F"/>
						<stop  offset="0.9662" style="stop-color:#98A09F"/>
						<stop  offset="0.9737" style="stop-color:#7F8685"/>
						<stop  offset="0.9807" style="stop-color:#6D7372"/>
					</linearGradient>
					<path style="fill:url(#SVGID_00000174589077276971020620000008510260089402658733_);" d="M139.9,153.7c-2.1-0.5-4.9-0.9-7.9-1
						h-0.3c-2.9,0-5.6,0.2-7.6,0.6c-2.7,0.5-3.9,1.3-3.9,2.5s1.2,2,3.9,2.6c2.1,0.5,4.9,0.8,7.8,0.9c0.3,0,0.5,0,0.8,0
						c2.7,0,5.2-0.1,7.1-0.5c2.7-0.5,3.9-1.3,4-2.5C143.8,155.3,142.5,154.4,139.9,153.7z M139.5,158.1c-1.8,0.3-4.2,0.5-6.9,0.5
						c-0.2,0-0.5,0-0.8,0c-3-0.1-5.7-0.4-7.7-0.9s-3.2-1.1-3.2-1.7c0-0.7,1.2-1.2,3.2-1.6c1.9-0.4,4.5-0.6,7.5-0.6
						c0.1,0,0.2,0,0.3,0c3,0.1,5.7,0.4,7.7,0.9s3.1,1.2,3.1,1.8C142.8,157.1,141.5,157.7,139.5,158.1z"/>
				</g>
				<g>
					
						<linearGradient id="SVGID_00000039130825249845761950000008749959779308077731_" gradientUnits="userSpaceOnUse" x1="192.2988" y1="119.3229" x2="199.1339" y2="107.4843" gradientTransform="matrix(0.9999 1.670000e-02 1.670000e-02 -0.9999 -8.8317 267.1897)">
						<stop  offset="0" style="stop-color:#626868"/>
						<stop  offset="1.337791e-02" style="stop-color:#6C7272"/>
						<stop  offset="3.650970e-02" style="stop-color:#878F8E"/>
						<stop  offset="6.642971e-02" style="stop-color:#B3BCBA"/>
						<stop  offset="7.729470e-02" style="stop-color:#C5CECC"/>
						<stop  offset="0.1304" style="stop-color:#C5CECC"/>
						<stop  offset="0.1554" style="stop-color:#9EA6A5"/>
						<stop  offset="0.2327" style="stop-color:#9EA6A5"/>
						<stop  offset="0.2464" style="stop-color:#E6E8E8"/>
						<stop  offset="0.3237" style="stop-color:#E6E8E8"/>
						<stop  offset="0.3389" style="stop-color:#D0D4D3"/>
						<stop  offset="0.3756" style="stop-color:#9EA6A5"/>
						<stop  offset="0.5286" style="stop-color:#929A99"/>
						<stop  offset="0.5597" style="stop-color:#686E6D"/>
						<stop  offset="0.5797" style="stop-color:#515656"/>
						<stop  offset="0.6618" style="stop-color:#515656"/>
						<stop  offset="0.6726" style="stop-color:#757979"/>
						<stop  offset="0.6926" style="stop-color:#B1B5B5"/>
						<stop  offset="0.7073" style="stop-color:#D8DADA"/>
						<stop  offset="0.715" style="stop-color:#E6E8E8"/>
						<stop  offset="0.7585" style="stop-color:#E6E8E8"/>
						<stop  offset="0.7729" style="stop-color:#909494"/>
						<stop  offset="0.7942" style="stop-color:#757979"/>
						<stop  offset="0.8174" style="stop-color:#5F6464"/>
						<stop  offset="0.8397" style="stop-color:#525656"/>
						<stop  offset="0.8598" style="stop-color:#4D5252"/>
						<stop  offset="0.8723" style="stop-color:#525857"/>
						<stop  offset="0.8884" style="stop-color:#626767"/>
						<stop  offset="0.9062" style="stop-color:#7B8181"/>
						<stop  offset="0.9227" style="stop-color:#98A09F"/>
						<stop  offset="0.9662" style="stop-color:#98A09F"/>
						<stop  offset="0.9737" style="stop-color:#7F8685"/>
						<stop  offset="0.9807" style="stop-color:#6D7372"/>
					</linearGradient>
					<path style="fill:url(#SVGID_00000039130825249845761950000008749959779308077731_);" d="M196.7,154.7c-2.1-0.5-4.9-0.9-7.9-1
						h-0.3c-2.9,0-5.6,0.2-7.6,0.6c-2.7,0.5-3.9,1.3-3.9,2.5s1.2,2,3.9,2.6c2.1,0.5,4.9,0.8,7.8,0.9c0.3,0,0.5,0,0.8,0
						c2.7,0,5.2-0.1,7.1-0.5c2.7-0.5,3.9-1.3,4-2.5C200.5,156.3,199.3,155.4,196.7,154.7z M196.3,159c-1.8,0.3-4.2,0.5-6.9,0.5
						c-0.2,0-0.5,0-0.8,0c-3-0.1-5.7-0.4-7.7-0.9s-3.2-1.1-3.2-1.7c0-0.7,1.2-1.2,3.2-1.6c1.9-0.4,4.5-0.6,7.5-0.6
						c0.1,0,0.2,0,0.3,0c3,0.1,5.7,0.4,7.7,0.9s3.1,1.2,3.1,1.8C199.5,158.1,198.3,158.7,196.3,159z"/>
				</g>
			</g>
		</g>
		
			<linearGradient id="SVGID_00000106853204682192655270000003808131648891479970_" gradientUnits="userSpaceOnUse" x1="418.3547" y1="37.9703" x2="418.3547" y2="23.4014" gradientTransform="matrix(1 0 0 -1 0 248)">
			<stop  offset="0" style="stop-color:#DFE7EF"/>
			<stop  offset="0.2819" style="stop-color:#D2DEEA"/>
			<stop  offset="0.7988" style="stop-color:#B1C6DD"/>
			<stop  offset="1" style="stop-color:#A2BBD7"/>
		</linearGradient>
		<path style="fill:url(#SVGID_00000106853204682192655270000003808131648891479970_);" d="M427.9,209h-32.2c-2.6,0-2.6,9.6,0,9.6
			h45.9C445.8,218.6,440,209,427.9,209z"/>
		
			<radialGradient id="SVGID_00000072248501123195577650000009714380981980751798_" cx="414.6846" cy="41.1197" r="38.7961" gradientTransform="matrix(1 0 0 -1 0 248)" gradientUnits="userSpaceOnUse">
			<stop  offset="0" style="stop-color:#D2D8D9"/>
			<stop  offset="0.1091" style="stop-color:#CAD0D1"/>
			<stop  offset="0.2821" style="stop-color:#B3B9BA"/>
			<stop  offset="0.4976" style="stop-color:#8F9494"/>
			<stop  offset="0.747" style="stop-color:#5C6060"/>
			<stop  offset="1" style="stop-color:#212424"/>
		</radialGradient>
		<path style="fill:url(#SVGID_00000072248501123195577650000009714380981980751798_);" d="M433.5,211.1c0,0.7-2.6,1.3-19.2,1.3
			s-19.2-0.6-19.2-1.3s2.3-1.3,19.2-1.3C432.7,209.8,433.5,210.4,433.5,211.1z"/>
	</g>
</g>
</svg>
