<?xml version="1.0" standalone="no"?>
<svg xmlns:xlink="http://www.w3.org/1999/xlink" id="wave" style="transform:rotate(0deg); transition: 0.3s" viewBox="0 0 1440 250" version="1.1" xmlns="http://www.w3.org/2000/svg"><defs><linearGradient id="sw-gradient-0" x1="0" x2="0" y1="1" y2="0"><stop stop-color="rgba(62, 111.166, 243, 1)" offset="0%"/><stop stop-color="rgba(11, 201.27, 255, 1)" offset="100%"/></linearGradient></defs><path style="transform:translate(0, 0px); opacity:1" fill="url(#sw-gradient-0)" d="M0,125L120,133.3C240,142,480,158,720,145.8C960,133,1200,92,1440,91.7C1680,92,1920,133,2160,154.2C2400,175,2640,175,2880,150C3120,125,3360,75,3600,50C3840,25,4080,25,4320,37.5C4560,50,4800,75,5040,91.7C5280,108,5520,117,5760,108.3C6000,100,6240,75,6480,87.5C6720,100,6960,150,7200,179.2C7440,208,7680,217,7920,200C8160,183,8400,142,8640,112.5C8880,83,9120,67,9360,83.3C9600,100,9840,150,10080,166.7C10320,183,10560,167,10800,166.7C11040,167,11280,183,11520,175C11760,167,12000,133,12240,100C12480,67,12720,33,12960,37.5C13200,42,13440,83,13680,91.7C13920,100,14160,75,14400,75C14640,75,14880,100,15120,120.8C15360,142,15600,158,15840,154.2C16080,150,16320,125,16560,116.7C16800,108,17040,117,17160,120.8L17280,125L17280,250L17160,250C17040,250,16800,250,16560,250C16320,250,16080,250,15840,250C15600,250,15360,250,15120,250C14880,250,14640,250,14400,250C14160,250,13920,250,13680,250C13440,250,13200,250,12960,250C12720,250,12480,250,12240,250C12000,250,11760,250,11520,250C11280,250,11040,250,10800,250C10560,250,10320,250,10080,250C9840,250,9600,250,9360,250C9120,250,8880,250,8640,250C8400,250,8160,250,7920,250C7680,250,7440,250,7200,250C6960,250,6720,250,6480,250C6240,250,6000,250,5760,250C5520,250,5280,250,5040,250C4800,250,4560,250,4320,250C4080,250,3840,250,3600,250C3360,250,3120,250,2880,250C2640,250,2400,250,2160,250C1920,250,1680,250,1440,250C1200,250,960,250,720,250C480,250,240,250,120,250L0,250Z"/><defs><linearGradient id="sw-gradient-1" x1="0" x2="0" y1="1" y2="0"><stop stop-color="rgba(62, 160.221, 243, 1)" offset="0%"/><stop stop-color="rgba(32.52, 55.207, 143.793, 1)" offset="100%"/></linearGradient></defs><path style="transform:translate(0, 50px); opacity:0.9" fill="url(#sw-gradient-1)" d="M0,50L120,70.8C240,92,480,133,720,141.7C960,150,1200,125,1440,112.5C1680,100,1920,100,2160,91.7C2400,83,2640,67,2880,87.5C3120,108,3360,167,3600,183.3C3840,200,4080,175,4320,145.8C4560,117,4800,83,5040,70.8C5280,58,5520,67,5760,66.7C6000,67,6240,58,6480,62.5C6720,67,6960,83,7200,83.3C7440,83,7680,67,7920,75C8160,83,8400,117,8640,133.3C8880,150,9120,150,9360,133.3C9600,117,9840,83,10080,91.7C10320,100,10560,150,10800,154.2C11040,158,11280,117,11520,120.8C11760,125,12000,175,12240,162.5C12480,150,12720,75,12960,62.5C13200,50,13440,100,13680,116.7C13920,133,14160,117,14400,95.8C14640,75,14880,50,15120,50C15360,50,15600,75,15840,70.8C16080,67,16320,33,16560,25C16800,17,17040,33,17160,41.7L17280,50L17280,250L17160,250C17040,250,16800,250,16560,250C16320,250,16080,250,15840,250C15600,250,15360,250,15120,250C14880,250,14640,250,14400,250C14160,250,13920,250,13680,250C13440,250,13200,250,12960,250C12720,250,12480,250,12240,250C12000,250,11760,250,11520,250C11280,250,11040,250,10800,250C10560,250,10320,250,10080,250C9840,250,9600,250,9360,250C9120,250,8880,250,8640,250C8400,250,8160,250,7920,250C7680,250,7440,250,7200,250C6960,250,6720,250,6480,250C6240,250,6000,250,5760,250C5520,250,5280,250,5040,250C4800,250,4560,250,4320,250C4080,250,3840,250,3600,250C3360,250,3120,250,2880,250C2640,250,2400,250,2160,250C1920,250,1680,250,1440,250C1200,250,960,250,720,250C480,250,240,250,120,250L0,250Z"/></svg>