<?xml version="1.0" encoding="utf-8"?>
<!-- Generator: Adobe Illustrator 26.1.0, SVG Export Plug-In . SVG Version: 6.00 Build 0)  -->
<svg version="1.1" id="a" xmlns="http://www.w3.org/2000/svg" xmlns:xlink="http://www.w3.org/1999/xlink" x="0px" y="0px"
	 viewBox="0 0 2344.7 736" style="enable-background:new 0 0 2344.7 736;" xml:space="preserve">
<style type="text/css">
	.st0{opacity:0.9;fill:url(#SVGID_1_);enable-background:new    ;}
</style>
<linearGradient id="SVGID_1_" gradientUnits="userSpaceOnUse" x1="6236.751" y1="2911.1807" x2="6236.751" y2="2913.3809" gradientTransform="matrix(10304.8496 0 0 -131.62 -64268780 383904.7812)">
	<stop  offset="0" style="stop-color:#0BC9FF"/>
	<stop  offset="1" style="stop-color:#3E6FF3"/>
</linearGradient>
<path class="st0" d="M-4689.5,497.3l65.1,4.5c65.1,4.7,195.4,13.4,325.7,6.8c130.3-7,260.5-29.2,390.8-29.4
	c130.3,0.1,260.5,22.4,390.8,33.9c130.3,11.3,260.5,11.3,390.8-2.2c130.3-13.6,260.5-40.7,390.8-54.3s260.5-13.6,390.8-6.8
	c130.3,6.8,260.5,20.4,390.8,29.4c130.3,8.9,260.5,13.7,390.8,9c130.3-4.5,260.5-18.1,390.8-11.3c130.3,6.8,260.5,33.9,390.8,49.8
	c130.3,15.6,260.5,27.3,390.8,18.1c130.2-9.2,260.5-38.3,390.8-54.3s260.5-24.7,390.8-15.8c130.3,9.1,260.5,36.2,390.8,45.3
	c130.3,8.9,260.5,0.1,390.8,0c130.3,0.1,260.5,8.9,390.8,4.5s260.5-22.8,390.8-40.7s260.5-36.4,390.8-33.9s260.5,24.7,390.8,29.4
	c130.3,4.5,260.5-9.1,390.8-9.1s260.5,13.6,390.8,24.9c130.3,11.5,260.5,20.2,390.8,18.2c130.3-2.2,260.5-15.8,390.8-20.4
	c130.3-4.7,260.5,0.1,325.7,2.2l65.1,2.2V736h-9379V497.3L-4689.5,497.3z"/>
</svg>
