<?xml version="1.0" encoding="utf-8"?>
<!-- Generator: Adobe Illustrator 26.1.0, SVG Export Plug-In . SVG Version: 6.00 Build 0)  -->
<svg version="1.1" id="a" xmlns="http://www.w3.org/2000/svg" xmlns:xlink="http://www.w3.org/1999/xlink" x="0px" y="0px"
	 viewBox="0 0 2344.7 736" style="enable-background:new 0 0 2344.7 736;" xml:space="preserve">
<style type="text/css">
	.st0{fill:url(#SVGID_1_);}
</style>
<linearGradient id="SVGID_1_" gradientUnits="userSpaceOnUse" x1="6236.751" y1="2911.6379" x2="6236.751" y2="2913.6064" gradientTransform="matrix(10304.8496 0 0 -135.48 -64268780 395195.3438)">
	<stop  offset="0" style="stop-color:#3EA0F3"/>
	<stop  offset="1" style="stop-color:#213790"/>
</linearGradient>
<path class="st0" d="M-4689.5,483.9l65.1,11.3c65.1,11.5,195.4,33.7,325.7,38.5c130.3,4.5,260.5-9.1,390.8-15.8
	s260.5-6.8,390.8-11.3c130.3-4.7,260.5-13.4,390.8-2.2s260.5,43.2,390.8,52c130.3,9.1,260.5-4.5,390.8-20.3
	c130.3-15.6,260.5-34.1,390.8-40.7c130.3-7,260.5-2,390.8-2.2c130.3,0.1,260.5-4.7,390.8-2.2s260.5,11.1,390.8,11.3
	c130.3-0.1,260.5-8.9,390.8-4.5c130.2,4.4,260.5,22.8,390.8,31.6c130.3,9.1,260.5,9.1,390.8,0c130.3-8.9,260.5-27.3,390.8-22.6
	c130.3,4.5,260.5,31.6,390.8,33.9c130.3,2,260.5-20.2,390.8-18.2c130.3,2.2,260.5,29.4,390.8,22.7s260.5-47.5,390.8-54.3
	s260.5,20.4,390.8,29.4c130.3,8.9,260.5,0.1,390.8-11.3c130.3-11.3,260.5-24.9,390.8-24.9s260.5,13.6,390.8,11.3
	c130.3-2,260.5-20.5,390.8-24.9s260.5,4.4,325.7,9.1l65.1,4.5v251.9h-9379V483.9L-4689.5,483.9z"/>
</svg>
