<?xml version="1.0" encoding="UTF-8"?><svg id="a" xmlns="http://www.w3.org/2000/svg" xmlns:xlink="http://www.w3.org/1999/xlink" viewBox="0 0 2344.74 735.95"><defs><style>.d{fill:url(#c);}.e{fill:url(#b);isolation:isolate;opacity:.9;}</style><linearGradient id="b" x1="3260.07" y1="-2003.48" x2="3260.07" y2="-2005.68" gradientTransform="translate(-33596926.66 264433.21) scale(10304.85 131.62)" gradientUnits="userSpaceOnUse"><stop offset="0" stop-color="#0bc9ff"/><stop offset="1" stop-color="#3e6ff3"/></linearGradient><linearGradient id="c" x1="3260.07" y1="-2003.9" x2="3260.07" y2="-2005.87" gradientTransform="translate(-33596926.66 272215.03) scale(10304.85 135.48)" gradientUnits="userSpaceOnUse"><stop offset="0" stop-color="#3ea0f3"/><stop offset="1" stop-color="#213790"/></linearGradient></defs><path class="e" d="M-7034.21,497.34l65.13,4.51c65.13,4.71,195.39,13.38,325.66,6.76,130.26-6.96,260.53-29.22,390.79-29.36,130.26,.14,260.53,22.39,390.79,33.93,130.26,11.26,260.53,11.26,390.79-2.25,130.26-13.59,260.53-40.69,390.79-54.28,130.26-13.59,260.53-13.59,390.79-6.76,130.26,6.76,260.53,20.35,390.79,29.43,130.26,8.88,260.53,13.72,390.79,9.01,130.26-4.51,260.53-18.09,390.79-11.26,130.26,6.76,260.53,33.93,390.79,49.77,130.26,15.63,260.53,27.31,390.79,18.09,130.26-9.22,260.53-38.3,390.79-54.34,130.26-16.04,260.53-24.71,390.79-15.84,130.26,9.08,260.53,36.18,390.79,45.26,130.26,8.88,260.53,.14,390.79,0,130.26,.14,260.53,8.88,390.79,4.51,130.26-4.37,260.53-22.8,390.79-40.69C-260.53,465.94-130.26,447.44,0,449.89s260.53,24.71,390.79,29.43c130.26,4.51,260.53-9.08,390.79-9.08s260.53,13.59,390.79,24.85c130.26,11.54,260.53,20.21,390.79,18.16,130.26-2.25,260.53-15.84,390.79-20.35,130.26-4.71,260.53,.14,325.66,2.25l65.13,2.25v238.54H-7034.21v-238.61Z"/><path class="d" d="M-7034.21,483.89l65.13,11.26c65.13,11.54,195.39,33.73,325.66,38.51,130.26,4.51,260.53-9.08,390.79-15.84s260.53-6.76,390.79-11.26c130.26-4.71,260.53-13.38,390.79-2.25,130.26,11.13,260.53,43.15,390.79,52.02,130.26,9.08,260.53-4.51,390.79-20.35,130.26-15.63,260.53-34.07,390.79-40.69,130.26-6.96,260.53-2.05,390.79-2.25,130.26,.14,260.53-4.71,390.79-2.25,130.26,2.46,260.53,11.13,390.79,11.26,130.26-.14,260.53-8.88,390.79-4.51,130.26,4.37,260.53,22.8,390.79,31.61,130.26,9.08,260.53,9.08,390.79,0,130.26-8.88,260.53-27.31,390.79-22.6,130.26,4.51,260.53,31.61,390.79,33.93,130.26,2.05,260.53-20.21,390.79-18.16,130.26,2.25,260.53,29.43,390.79,22.67C-260.53,538.24-130.26,497.48,0,490.72c130.26-6.76,260.53,20.35,390.79,29.43,130.26,8.88,260.53,.14,390.79-11.33,130.26-11.26,260.53-24.85,390.79-24.85s260.53,13.59,390.79,11.26c130.26-2.05,260.53-20.48,390.79-24.85,130.26-4.37,260.53,4.37,325.66,9.08l65.13,4.51v251.92H-7034.21v-251.99Z"/></svg>